<svg width="140" height="140" viewBox="0 0 140 140" fill="none" xmlns="http://www.w3.org/2000/svg">
<path d="M109.951 110.241C109.068 105.466 101.339 105.897 101.193 110.663L101.202 127.394C104.257 125.593 107.185 123.645 109.951 121.553V110.241Z" fill="white"/>
<path d="M95.3129 110.094C94.3955 105.357 86.5688 106.087 86.5542 110.8L86.5688 134.618C89.5551 133.387 92.4779 132.054 95.3178 130.61L95.308 110.094H95.3129Z" fill="white"/>
<path d="M139.604 31.8695C139.506 29.3921 140.18 25.1551 139.033 23.0551C136.935 19.2119 130.157 20.4711 126.122 20.2332C109.307 19.2488 93.4587 14.8437 80.2597 6.00885C77.2734 4.01137 74.7897 1.35763 71.3058 0H68.705C65.2162 1.35763 62.7374 4.00727 59.7511 6.00885C46.5424 14.8519 30.7133 19.2488 13.8888 20.2332C9.69732 20.4793 3.65651 19.1955 1.08989 22.8746C-0.193414 24.7122 0.494595 29.5274 0.401884 31.8695C-0.637448 58.5586 -1.09124 87.5815 18.0169 110.284C22.3547 115.436 27.4928 119.935 33.1921 123.856L33.2018 66.3311C23.6136 62.0162 18.173 53.165 19.9784 44.1455C20.6908 40.5854 22.8622 36.7011 25.6435 33.9449L28.0832 31.8941L32.1283 29.6505L32.182 46.2743L44.3027 52.2011L56.7991 46.2046L57.0821 29.589C61.8737 32.255 65.5724 35.647 67.6803 40.1711C71.4082 48.1815 68.6318 57.5332 60.9759 63.259C60.3123 63.7553 56.8332 65.6585 56.7015 65.9456V135.743C56.6966 135.8 56.6868 135.853 56.6771 135.911C60.7075 137.445 64.8405 138.806 69.0271 140H70.9789C75.1752 138.802 79.3179 137.432 83.3679 135.886V105.702C83.0166 104.87 85.1099 101.814 85.0611 101.601C85.0172 101.388 84.3926 100.813 84.1828 100.329C84.0071 99.9191 83.9632 99.2055 84.0364 98.7748C84.7488 94.6814 91.2434 96.0308 94.6298 95.8052V47.5622C93.161 45.1586 93.0878 42.0373 92.2974 39.3713L94.3321 28.7604L101.642 28.6579L103.72 39.5189C102.944 42.1399 102.998 45.2202 101.505 47.5663L101.534 95.8093C104.994 95.9939 111.61 94.706 111.942 99.066C112.05 100.469 110.839 101.269 110.786 101.896C110.752 102.29 112.655 104.911 112.308 105.858V119.713C116.114 116.613 119.588 113.208 122.638 109.472C141.063 86.9048 140.629 58.214 139.599 31.8777L139.604 31.8695Z" fill="white"/>
</svg>
