<svg width="53" height="53" viewBox="0 0 53 53" fill="none" xmlns="http://www.w3.org/2000/svg">
<circle cx="26.5" cy="26.5" r="26.5" fill="white"/>
<path d="M9.47757 26.0742C9.68466 26.1578 9.64874 27.1957 9.57266 27.3265L9.40995 27.3908C9.15003 27.2922 9.1775 27.1614 9 26.9748V26.4902C9.16694 26.2865 9.22822 26.1707 9.47757 26.0742Z" fill="#FB9898"/>
<path d="M21.0935 17.1289L21.1907 17.2426C21.2203 18.3683 21.2329 19.4855 21.2287 20.5962C21.3492 20.7549 21.0449 21.0701 20.8864 20.9436L20.9329 21.0937C20.2757 21.5269 19.9735 22.629 21.047 22.5668L21.1611 22.6762L21.2985 22.7255V37.7056L21.1611 37.7914C20.6138 37.8214 20.0665 37.8257 19.5213 37.7914L19.3839 37.742C19.4072 33.9038 19.4283 30.0655 19.4516 26.2272L19.5889 26.1435L19.6227 25.9698C20.0602 25.5496 20.3137 24.4131 19.5445 24.218L19.5192 24.0636L19.3818 23.9992V18.4862L19.5192 18.2397C20.0919 17.7572 20.4384 17.5042 21.0914 17.1311L21.0935 17.1289Z" fill="#DF454C"/>
<path d="M29.9096 16.2302C30.0343 16.2752 30.03 16.3889 29.899 16.5711L29.9096 37.7075L29.7722 37.7933H28.5424L28.405 37.7268V15.9686L28.5424 15.8828C29.0707 15.9836 29.3919 16.0565 29.9096 16.2302Z" fill="#CF303B"/>
<path d="M27.5851 15.7422C27.9654 15.7765 28.1725 15.8108 28.5423 15.8816V37.792H27.3801C27.3251 37.7856 27.2427 37.7641 27.2427 37.7255C27.1962 31.6872 27.2279 25.4773 27.3019 19.3875C27.266 19.0358 27.1603 15.9566 27.285 15.828L27.5851 15.7422Z" fill="#D2343E"/>
<path d="M31.0697 16.7133C31.188 16.7819 31.1859 16.917 31.0633 17.1186L31.0697 37.706L30.9323 37.7918H29.7701L29.7659 16.5353L29.9075 16.2266C30.3576 16.3767 30.6555 16.5203 31.0697 16.7112V16.7133Z" fill="#CE2E39"/>
<path d="M32.2319 17.3371C32.3502 17.3993 32.346 17.5108 32.2213 17.678L32.2319 37.7058L32.0946 37.7915H30.9323L30.9281 17.0905L31.0676 16.7109C31.5261 16.9232 31.8008 17.0712 32.2298 17.3349L32.2319 17.3371Z" fill="#CB2B37"/>
<path d="M34.3514 19.0695L34.4866 19.3655C34.4634 25.4831 34.4422 31.5965 34.419 37.7056L34.2816 37.7914C33.8949 37.8343 33.4491 37.8236 33.0518 37.7914L32.9144 37.7249C32.9377 31.1655 32.9588 24.6061 32.982 18.0467L33.1194 17.9609C33.6371 18.3619 33.8949 18.5914 34.3493 19.0695H34.3514Z" fill="#C82633"/>
<path d="M35.6488 20.7343C35.7059 20.8822 35.5854 20.9809 35.5558 20.8801C35.615 26.5175 35.5558 32.1548 35.4438 37.7922C35.0825 37.8415 34.6514 37.8329 34.2816 37.7922L34.3492 19.0703C34.9071 19.66 35.2093 20.046 35.6467 20.7343H35.6488Z" fill="#C62330"/>
<path d="M19.5234 24.064L19.4516 24.199C18.6021 24.2591 18.395 26.3026 19.4622 26.0431L19.5911 26.1461L19.5234 37.7939C19.1367 37.8282 18.7479 37.8325 18.3612 37.7939L18.2239 37.7274L18.2281 19.9169C18.1647 19.7775 18.133 19.7025 18.2239 19.5588C18.6951 18.9991 18.9508 18.7247 19.5213 18.2422V24.0661L19.5234 24.064Z" fill="#E2494F"/>
<path d="M33.1215 17.9599L33.0539 37.7904C32.7559 37.829 32.4115 37.8226 32.0966 37.7904L32.0924 17.6447L32.234 17.3359C32.5974 17.5611 32.7876 17.7005 33.1215 17.9599Z" fill="#CA2835"/>
<path d="M27.5851 15.7405L27.3801 15.9099V37.7903H26.5602L26.4228 37.7238V20.1942L26.5602 20.1084C26.4799 20.0205 26.52 19.9905 26.6278 20.0398L26.6933 19.8919C27.3103 19.6624 27.154 18.8583 26.5475 18.7361L26.4904 18.5838C26.4376 18.5838 26.3552 18.571 26.3531 18.5367C26.3129 17.8055 26.3066 16.8126 26.3531 16.0857C26.3087 15.8584 26.3531 15.719 26.4904 15.6719C26.8793 15.6719 27.2195 15.7083 27.5829 15.7405H27.5851Z" fill="#D3363F"/>
<path d="M41.0459 40.9128C41.0417 41.0972 41.0564 41.2838 41.0459 41.4682L40.9804 41.6076H12.024L11.9394 41.4682C11.9289 41.2859 11.9437 41.0972 11.9394 40.9128L12.0049 40.7734H40.9635L41.048 40.9128H41.0459Z" fill="#D7DBDB"/>
<path d="M16.4488 22.4664C16.6326 22.3656 16.7024 22.7344 16.7256 22.8931L16.7214 37.6566C16.9855 37.6352 17.2476 37.6287 17.4737 37.7896C17.7632 37.603 18.0717 37.5987 18.3612 37.7896C18.7479 37.7896 19.1367 37.7896 19.5234 37.7896C20.0686 37.7896 20.618 37.7896 21.1632 37.7896C21.7084 37.6545 22.2578 37.6523 22.803 37.7896C23.2109 37.6545 23.625 37.6523 24.0329 37.7896C24.3266 37.6545 24.6267 37.6523 24.9204 37.7896C25.1676 37.6545 25.4233 37.6523 25.6727 37.7896C25.9664 37.6545 26.2665 37.6523 26.5602 37.7896C26.8328 37.7896 27.1075 37.7896 27.3801 37.7896C27.7668 37.7896 28.1556 37.7896 28.5423 37.7896H35.4438C35.4988 37.5601 36.306 37.5794 36.4011 37.7896C36.4666 37.5601 37.3203 37.5773 37.426 37.7896V37.8582C36.213 37.9204 34.998 37.9718 33.7829 37.974C28.9248 37.9847 24.0625 37.9847 19.2043 37.974C17.9893 37.9718 16.7742 37.9204 15.5613 37.8582V26.1053C15.6395 24.7822 15.9522 23.6672 16.4488 22.4643V22.4664Z" fill="#E64F54"/>
<path d="M35.6489 20.7344C36.0609 21.3841 36.2511 21.7615 36.5364 22.467V37.7044L36.399 37.7901H35.4418C35.4418 32.1399 35.4418 26.4875 35.4418 20.8373L35.6467 20.7344H35.6489Z" fill="#C4202F"/>
<path d="M18.3612 37.7919C18.0654 37.7919 17.7674 37.7962 17.4737 37.7919C17.4188 37.7855 17.3363 37.7662 17.3363 37.7255C17.2708 32.4998 17.2244 27.1133 17.273 21.8577C17.2244 21.4116 17.2687 20.9914 17.404 20.5947C17.6871 20.1637 17.909 19.9299 18.2239 19.5547L18.3655 19.8635L18.3612 37.7919Z" fill="#E34B50"/>
<path d="M17.4737 37.791C17.1779 37.7867 16.8799 37.7932 16.5841 37.791L16.5883 22.8453L16.4489 22.4657C16.7489 21.7409 16.9666 21.2628 17.4061 20.5938L17.4737 37.7889V37.791Z" fill="#E44D52"/>
<path d="M37.426 37.7919H36.4011L36.3969 22.7775L36.5384 22.4688C37.0287 23.6803 37.3478 24.7824 37.426 26.1098C37.6499 29.9245 37.259 33.9558 37.426 37.7919Z" fill="#C21E2D"/>
<path d="M41.0458 41.4688C41.0331 41.6939 41.0289 41.7454 40.9782 41.9534L40.8704 42.0927C31.2767 42.0649 21.683 42.0606 12.0915 42.0799L12.007 41.9534C11.9562 41.7454 11.952 41.6939 11.9393 41.4688H41.0479H41.0458Z" fill="#D3D7D8"/>
<path d="M41.0458 39.3855C41.0542 39.5227 41.0416 39.6642 41.0458 39.8015L40.9803 39.9408H12.0239L11.9393 39.8015C11.9436 39.6642 11.933 39.5227 11.9393 39.3855L12.0048 39.2461H40.9634L41.0479 39.3855H41.0458Z" fill="#E2E5E6"/>
<path d="M41.0458 39.8047C41.05 39.9441 41.0458 40.0813 41.0458 40.2207L40.9803 40.3601H12.0239L11.9394 40.2207C11.9394 40.0813 11.9352 39.9441 11.9394 39.8047H41.0479H41.0458Z" fill="#DFE2E3"/>
<path d="M41.0459 40.4949C41.0459 40.6342 41.0501 40.7715 41.0459 40.9108H11.9373C11.9331 40.7715 11.9373 40.6342 11.9373 40.4949L12.0028 40.3555H40.9613L41.0459 40.4949Z" fill="#DADEDE"/>
<path d="M40.9105 38.6902C40.9824 38.8574 41.0246 38.9046 41.0479 39.1062L40.9824 39.2455H12.0239L11.9393 39.1062C11.9626 38.8853 12.0027 38.8638 12.0767 38.6902L12.2373 38.5508C21.7507 38.5508 31.2661 38.5508 40.7795 38.5551L40.9126 38.6902H40.9105Z" fill="#E7EAEA"/>
<path d="M40.5682 38.2073C40.7795 38.3917 40.7985 38.4324 40.9105 38.6919H12.0746C12.1866 38.4324 12.2056 38.3917 12.4169 38.2073L12.6388 38.1172C21.7528 38.025 31.1943 38.0465 40.3125 38.1065L40.5703 38.2073H40.5682Z" fill="#EAEDED"/>
<path d="M12.2119 42.3685C12.1359 42.2291 12.0894 42.1283 12.269 42.0855C19.758 42.0233 27.2681 42.0447 34.8035 42.1498L40.5598 42.0962C40.7394 42.1391 40.8112 42.2291 40.7753 42.3664C40.733 42.4307 40.7457 42.5122 40.6443 42.6151C40.5682 42.6923 40.4731 42.6859 40.4351 42.7116L40.1413 42.8145C31.1436 42.8767 21.8479 42.8746 12.8501 42.8145L12.5564 42.7095C12.4972 42.6687 12.4106 42.6816 12.3112 42.5765C12.2373 42.4993 12.2457 42.4071 12.2162 42.3642L12.2119 42.3685Z" fill="#CED3D3"/>
<path d="M15.5592 37.8605C22.8411 37.8069 30.142 37.8069 37.4239 37.8605C38.117 37.8648 39.7273 37.7383 40.2725 37.987C40.3887 38.0406 40.4753 38.1264 40.5683 38.2079H12.417C12.51 38.1264 12.5966 38.0406 12.7128 37.987C13.258 37.7383 14.8682 37.8648 15.5613 37.8605H15.5592Z" fill="#EEEFEF"/>
<path d="M40.9782 41.9531C40.9042 42.2576 40.9085 42.1633 40.7732 42.3691L40.5366 42.2297C31.2176 42.4656 21.7486 41.9145 12.4465 42.2297C12.3155 42.234 12.1718 42.159 12.2099 42.3691C12.0746 42.1633 12.0788 42.2576 12.0049 41.9531H40.9761H40.9782Z" fill="#D0D5D5"/>
<path d="M40.431 42.7148C40.2027 42.88 40.0633 43.0343 39.7167 42.9957H13.1989C12.8882 43.0215 12.753 42.8564 12.5522 42.7148H40.431Z" fill="#CACFD0"/>
<path d="M41.0458 39.1094C41.0564 39.1994 41.0416 39.2959 41.0458 39.386H11.9372C11.9415 39.2938 11.9267 39.1994 11.9372 39.1094H41.0458Z" fill="#E4E7E8"/>
<path d="M41.0458 40.2188C41.0458 40.311 41.0458 40.4032 41.0458 40.4954H11.9373C11.9373 40.4032 11.9373 40.311 11.9373 40.2188H41.0458Z" fill="#DCE0E0"/>
<path d="M22.6658 16.3673C22.6975 16.3631 22.7292 16.3609 22.7566 16.3673C22.9024 16.4102 22.9891 19.2579 22.9341 19.3994L22.8031 19.4873C22.8433 19.691 22.3551 20.0427 22.1882 19.9033C22.091 20.2164 21.5521 20.5852 21.2309 20.5959C21.1147 20.5251 21.1041 20.4072 21.0936 20.285C21.0027 19.2836 21.1654 18.145 21.0936 17.1286C21.6345 16.8198 22.0804 16.5882 22.6658 16.3652V16.3673Z" fill="#DC4249"/>
<path d="M24.3055 15.8828C24.3583 15.8828 24.4407 15.8914 24.4428 15.9257C24.5147 16.6462 24.5717 18.0786 24.5083 18.7798L24.3731 18.8655L24.3118 19.0285L23.3672 19.4316L23.2109 19.3501C23.251 19.5517 22.9108 19.6546 22.8009 19.4895L22.6636 16.3696C23.2067 16.1637 23.7349 16.0007 24.3034 15.885L24.3055 15.8828Z" fill="#D93E46"/>
<path d="M25.8101 15.6719C25.8672 15.7555 25.8207 15.8348 25.6685 15.9077L25.6727 18.571L25.5354 18.6546L25.4593 18.8047L24.4957 18.9741L24.3732 18.8626L24.3055 15.882C24.8021 15.7791 25.3008 15.7019 25.808 15.674L25.8101 15.6719Z" fill="#D73A43"/>
<path d="M26.4926 15.6719V18.5839C26.4313 18.7747 26.0911 18.7726 26.015 18.5839C25.8946 18.5817 25.7805 18.6053 25.6727 18.6525C25.6347 18.7854 25.5734 18.7854 25.5354 18.6525L25.5311 15.7791L25.8079 15.6698C26.0319 15.6569 26.2665 15.6698 26.4905 15.6698L26.4926 15.6719Z" fill="#D53841"/>
<path d="M27.1752 9.50216C27.3506 10.0168 27.2513 11.8566 27.2449 12.5192C27.2449 12.6371 27.2893 12.828 27.1752 12.8987C27.116 12.8751 27.116 12.8537 27.1752 12.8301C27.0019 12.7529 27.004 12.7036 27.1752 12.6221C26.985 12.5492 26.9808 12.3455 27.1752 12.2747C26.9914 12.189 26.9892 12.0839 27.1752 11.9981C26.9914 11.8888 26.9892 11.7601 27.1752 11.6507C27.0442 11.5628 27.0421 11.4599 27.1752 11.3741C27.0421 11.2626 27.0421 11.1383 27.1752 11.0268C27.0421 10.9388 27.0421 10.8381 27.1752 10.7501C27.004 10.6258 27.004 10.5293 27.1752 10.4028C26.985 10.3341 26.9892 10.1948 27.1752 10.1262C27.1435 10.1154 27.1118 10.1026 27.0843 10.0833C27.0653 10.0704 27.0505 10.0554 27.0421 10.0361C27.0125 9.96747 25.8904 9.91172 25.8101 10.1262C25.9834 10.2291 25.9834 10.302 25.8101 10.4028C25.9813 10.5271 25.9813 10.6258 25.8101 10.7501C25.9432 10.8381 25.9432 10.941 25.8101 11.0268C25.9432 11.1383 25.9432 11.2626 25.8101 11.3741C25.9432 11.4621 25.9411 11.5628 25.8101 11.6507C25.9834 11.7751 25.9813 11.8716 25.8101 11.9981C25.9961 12.0839 25.994 12.189 25.8101 12.2747C26.0045 12.3455 26.0003 12.5471 25.8101 12.6221C25.994 12.6671 25.977 12.7443 25.8101 12.8301C25.8693 12.8473 25.8693 12.8709 25.8101 12.8987C25.696 12.8258 25.7425 12.635 25.7404 12.5192C25.7319 11.8587 25.6347 10.0125 25.8101 9.50216C26.0869 9.28988 26.8984 9.29202 27.1773 9.50216H27.1752Z" fill="#FA9797"/>
<path d="M43.7802 26.2805C43.8796 26.5679 43.8627 26.8916 43.7802 27.1811C43.7063 27.2669 43.6851 27.3505 43.5562 27.4063C43.4273 27.462 43.3555 27.447 43.2329 27.4577L43.0956 27.3805V26.1004L43.2329 26.0039C43.5309 26.0361 43.5879 26.0554 43.7802 26.2805Z" fill="#FA9595"/>
<path d="M17.199 16.2953L17.1715 16.469C16.863 16.6963 16.5904 16.9664 16.3537 17.2752L16.1762 17.2666C16.0536 17.1637 15.9966 17.0779 15.9036 16.99L15.8402 16.8185C15.9332 16.5783 16.5925 15.8814 16.8609 15.95C16.975 16.0744 17.0806 16.128 17.2032 16.2974L17.199 16.2953Z" fill="#E3686B"/>
<path d="M27.1751 12.8286C27.1709 12.8522 27.1793 12.8758 27.1751 12.8973C27.0251 13.6113 25.941 13.6027 25.8079 12.8973C25.8037 12.8758 25.81 12.8501 25.8079 12.8286C25.8079 12.7622 25.829 12.7257 25.8861 12.7236C26.2833 12.7171 26.6785 12.7171 27.0758 12.7236C27.1371 12.7236 27.1666 12.7579 27.173 12.8286H27.1751Z" fill="#DC5D60"/>
<path d="M14.9443 14.0783C15.2042 14.1727 15.1429 14.2284 15.2866 14.3549L15.2528 14.5136C14.8978 14.6809 14.6379 14.9982 14.4244 15.3241H14.2617C14.1392 15.1805 14.0821 15.2448 13.9891 14.9789C13.9764 14.5072 14.4773 14.0247 14.9464 14.0783H14.9443Z" fill="#F99494"/>
<path d="M41.7982 26.0039C41.851 26.0189 41.9313 26.0404 41.9355 26.0811C41.9524 26.2505 41.9545 27.3484 41.889 27.4149C41.8658 27.4384 41.8341 27.4513 41.7982 27.4599C41.6608 27.4599 41.5256 27.462 41.3882 27.4599L41.2509 27.3827V26.1025L41.3882 26.006C41.5256 26.0039 41.6608 26.006 41.7982 26.006V26.0039Z" fill="#EA7779"/>
<path d="M10.8447 26.0054L10.9821 26.0826V27.3628L10.8447 27.4593C10.7074 27.4571 10.5721 27.4635 10.4348 27.4593C10.3819 27.4442 10.3038 27.4228 10.2974 27.3821C10.2826 27.2577 10.2721 26.1598 10.2974 26.1019C10.3207 26.0504 10.3798 26.0247 10.4348 26.0054C10.5721 26.0011 10.7074 26.0076 10.8447 26.0054Z" fill="#F08384"/>
<path d="M11.597 26.0049L11.7344 26.0821V27.3622L11.597 27.4587C11.4597 27.4608 11.3244 27.4587 11.1871 27.4587C11.1343 27.4437 11.0561 27.4222 11.0497 27.3815C11.0349 27.2571 11.0244 26.1592 11.0497 26.1014C11.073 26.0499 11.1321 26.0242 11.1871 26.0049C11.3244 26.0049 11.4597 26.0027 11.597 26.0049Z" fill="#EA7678"/>
<path d="M37.426 16.6441C37.3352 16.7342 37.2485 16.8307 37.1534 16.9207L36.9823 16.8929C36.7583 16.5798 36.492 16.3032 36.1877 16.063L36.1962 15.8829C36.2871 15.7843 36.38 15.6985 36.4688 15.6063C36.7372 15.5377 37.3943 16.2346 37.4894 16.4747L37.426 16.6463V16.6441Z" fill="#E77072"/>
<path d="M37.1513 16.9228C37.0562 17.0129 36.9949 17.0965 36.8787 17.1994C36.6928 17.1136 36.5216 16.9571 36.3652 16.7298C36.0969 16.5497 35.9511 16.3588 35.9236 16.1594C36.025 16.0393 36.1095 15.9772 36.1962 15.8828C36.5216 16.1916 36.9569 16.5154 37.1534 16.9228H37.1513Z" fill="#E36A6C"/>
<path d="M40.1583 26.0742C40.3654 26.1536 40.3295 27.2128 40.2534 27.3372L40.0907 27.393C39.6152 27.2493 39.4673 26.7497 39.7483 26.3187C39.8878 26.1064 39.9681 26.1321 40.1583 26.0764V26.0742Z" fill="#DD5F62"/>
<path d="M16.8588 15.949C16.5333 16.2578 16.098 16.5816 15.9015 16.989C15.8043 16.8968 15.7219 16.8024 15.6289 16.7124L15.5676 16.543C15.6838 16.2942 16.3136 15.651 16.5862 15.6724C16.6749 15.7667 16.7679 15.8504 16.8588 15.949Z" fill="#E66F71"/>
<path d="M38.5185 15.5318C38.4276 15.6304 38.3347 15.7141 38.2459 15.8084L38.0684 15.817C37.8296 15.5082 37.557 15.2402 37.2506 15.0107L37.2231 14.837C37.3161 14.747 37.3964 14.6548 37.4957 14.5604L37.6648 14.4961C37.9015 14.5904 38.5882 15.2595 38.5206 15.5318H38.5185Z" fill="#F38889"/>
<path d="M38.0409 14.079C38.4678 14.0533 38.9517 14.5744 38.9982 14.9796C38.9031 15.2455 38.8482 15.1812 38.7256 15.327L38.5544 15.2991C38.3304 14.9861 38.0642 14.7095 37.7599 14.4693L37.7683 14.2892C37.8803 14.1948 37.8148 14.1627 38.0409 14.0812V14.079Z" fill="#F99393"/>
<path d="M15.2866 14.3576C15.3732 14.4348 15.4239 14.5034 15.4916 14.5656L15.5 14.7457C15.1957 14.988 14.9316 15.2647 14.7055 15.5756L14.5343 15.6035C14.4456 15.5091 14.361 15.4448 14.2617 15.3268C14.4836 14.9602 14.8682 14.4863 15.2866 14.3555V14.3576Z" fill="#F68D8E"/>
<path d="M36.5363 17.4753C35.8348 17.6876 35.4185 17.1836 35.6488 16.5039C35.9573 16.5532 36.6145 17.1536 36.5363 17.4753Z" fill="#DD5E60"/>
<path d="M16.4489 17.476L16.3792 17.313C16.4573 17.0943 17.0913 16.4124 17.3385 16.5046C17.5519 17.1651 17.1251 17.729 16.451 17.476H16.4489Z" fill="#DD5F61"/>
<path d="M12.8269 26.0725C12.7318 26.4542 12.7106 26.8595 12.7635 27.2883L12.6219 27.4577C12.5099 27.4685 12.3937 27.4535 12.2796 27.4577L12.1422 27.3805V26.1004L12.2796 26.0039C12.5226 26.0168 12.586 26.0018 12.8269 26.0725Z" fill="#E26769"/>
<path d="M27.1752 9.50177H25.808C26.0383 8.83274 26.9449 8.83274 27.1752 9.50177Z" fill="#FD9C9C"/>
<path d="M15.9691 15.0509L15.9416 15.2246C15.6331 15.4519 15.3605 15.722 15.1239 16.0308L14.9463 16.0222C14.8787 15.9515 14.809 15.8872 14.7414 15.8142L14.678 15.6427C14.771 15.4025 15.4303 14.7056 15.6986 14.7743C15.7937 14.8665 15.8804 14.9608 15.9712 15.0509H15.9691Z" fill="#F18485"/>
<path d="M38.2459 15.8112C38.1551 15.9056 38.0621 15.9956 37.9733 16.0878C37.7874 16.0021 37.6162 15.8455 37.4598 15.6182C37.1915 15.4381 37.0457 15.2473 37.0182 15.0478C37.0879 14.9792 37.1513 14.9085 37.2232 14.8398C37.6247 15.0393 37.9437 15.481 38.248 15.8112H38.2459Z" fill="#F08283"/>
<path d="M15.9691 15.049C16.0409 15.1198 16.1043 15.1863 16.1741 15.257L16.1825 15.4371C15.8782 15.6794 15.6141 15.9561 15.388 16.267L15.2168 16.2949C15.1238 16.2005 15.0351 16.1126 14.9442 16.0182C15.2485 15.688 15.5676 15.2463 15.9691 15.0469V15.049Z" fill="#ED7D7F"/>
<path d="M41.3882 26.0054V27.4614C41.2741 27.4592 41.16 27.4635 41.0459 27.4614C40.8451 27.3735 40.8874 26.7066 40.9085 26.4536C40.862 26.2198 40.9085 26.0697 41.0459 26.0054C41.16 26.0011 41.2741 26.0076 41.3882 26.0054Z" fill="#E77274"/>
<path d="M10.0925 26.0024C10.1453 26.0174 10.2256 26.0388 10.2298 26.0796C10.2467 26.249 10.2488 27.3469 10.1833 27.4133C10.1601 27.4369 10.1284 27.4498 10.0925 27.4584C9.98048 27.4541 9.86214 27.4691 9.75015 27.4584L9.61279 27.3812C9.61702 26.9545 9.61702 26.5277 9.61279 26.101L9.75015 26.0045C9.85792 25.9917 9.98048 26.011 10.0925 26.0045V26.0024Z" fill="#F68E8F"/>
<path d="M10.4349 26.0024V27.4584C10.3207 27.4563 10.2066 27.4627 10.0925 27.4584V26.0024C10.2066 25.996 10.3207 26.0046 10.4349 26.0024Z" fill="#F4898A"/>
<path d="M11.1871 26.0039V27.4599C11.0729 27.4599 10.9588 27.4599 10.8447 27.4599V26.0039C10.9588 26.0039 11.0729 26.0039 11.1871 26.0039Z" fill="#ED7D7E"/>
<path d="M11.9373 26.0031C11.9901 26.0181 12.0683 26.0396 12.0747 26.0803C12.0894 26.209 12.1064 27.3047 12.0747 27.3604C12.0451 27.414 11.9922 27.4398 11.9373 27.4569C11.8232 27.4591 11.7091 27.4569 11.595 27.4569V26.001C11.7091 26.001 11.8232 25.9988 11.9373 26.001V26.0031Z" fill="#E77173"/>
<path d="M12.2796 26.0024V27.4584C12.1655 27.4627 12.0514 27.4563 11.9373 27.4584V26.0024C12.0514 26.0046 12.1655 25.996 12.2796 26.0024Z" fill="#E56C6E"/>
<path d="M40.7732 26.0045C40.8261 26.0195 40.9043 26.041 40.9106 26.0817C40.9254 26.2104 40.9423 27.3061 40.9106 27.3619C40.881 27.4155 40.8282 27.4412 40.7732 27.4584C40.6612 27.4541 40.5429 27.4669 40.4309 27.4584C40.3781 27.4434 40.2978 27.4219 40.2936 27.3812C40.2661 27.1003 40.2661 26.3819 40.2936 26.101L40.4309 26.0045C40.5387 25.9917 40.6612 26.011 40.7732 26.0045Z" fill="#E2686A"/>
<path d="M42.8927 26.0034C42.9456 26.0184 43.0238 26.0398 43.0301 26.0806C43.0449 26.2092 43.0618 27.305 43.0301 27.3607C43.0005 27.4143 42.9477 27.4401 42.8927 27.4572C42.7786 27.4615 42.6645 27.4551 42.5504 27.4572C42.5018 27.4508 42.4638 27.4422 42.4595 27.4251C42.4342 27.3243 42.4109 26.0934 42.4595 26.0463C42.4828 26.0248 42.5166 26.012 42.5504 26.0012C42.6645 26.0055 42.7786 25.9969 42.8927 26.0012V26.0034Z" fill="#F48A8B"/>
<path d="M43.233 26.0049V27.4609C43.121 27.4716 43.0047 27.4566 42.8906 27.4609V26.0049C43.0026 26.0092 43.1231 25.992 43.233 26.0049Z" fill="#F68E8F"/>
<path d="M16.4488 15.5327C16.3643 15.7214 16.2101 15.8951 15.9861 16.0537C15.8086 16.3261 15.6205 16.474 15.424 16.5019C15.3521 16.4311 15.2887 16.3625 15.219 16.2939C15.4155 15.8865 15.8508 15.5627 16.1762 15.2539C16.2671 15.3483 16.358 15.4362 16.4488 15.5305V15.5327Z" fill="#EB787A"/>
<path d="M38.7235 15.3251C38.658 15.4002 38.584 15.4624 38.5185 15.5331C38.2142 15.2029 37.8951 14.7612 37.4937 14.5618C37.5866 14.4739 37.6437 14.3881 37.7662 14.2852C38.0917 14.5939 38.527 14.9177 38.7235 15.3251Z" fill="#F68E8E"/>
<path d="M13.0319 27.3218C12.9537 27.3776 12.8629 27.4097 12.7826 27.3475C12.7276 27.3046 12.6431 25.9473 13.0319 26.1446C13.4926 26.4555 13.4989 27.013 13.0319 27.3239V27.3218Z" fill="#DC5F62"/>
<path d="M37.631 16.435C37.5612 16.5037 37.4979 16.5744 37.426 16.643C37.2295 16.2356 36.7942 15.9118 36.4688 15.6031C36.5364 15.5323 36.6082 15.4637 36.6737 15.3951C36.9463 15.3736 37.5739 16.0169 37.6923 16.2656L37.631 16.435Z" fill="#EA7678"/>
<path d="M17.199 16.2969C17.2582 16.3784 17.2793 16.3269 17.3364 16.5049C17.0342 16.7901 16.6221 17.0924 16.4489 17.4762C16.2249 17.3905 16.2904 17.3647 16.1763 17.2682C16.4806 16.938 16.7996 16.4963 17.2011 16.2969H17.199Z" fill="#DF6265"/>
<path d="M15.6965 14.7744C15.3711 15.0832 14.9358 15.407 14.7393 15.8144C14.6717 15.7436 14.6019 15.6793 14.5343 15.6064C14.7308 15.199 15.1661 14.8752 15.4916 14.5664C15.5634 14.635 15.6268 14.7058 15.6965 14.7744Z" fill="#F38889"/>
<path d="M38.9961 14.9792C38.715 14.6726 38.4171 14.2544 38.0388 14.0786C38.696 13.8427 39.237 14.2973 38.9961 14.9792Z" fill="#FC9A9A"/>
<path d="M12.827 26.0737C12.9115 26.0995 12.922 26.0673 13.0319 26.1423C12.8079 26.2946 12.8861 26.8242 12.8946 27.0815C12.8988 27.2145 12.8248 27.3603 13.0319 27.3217C12.9939 27.3474 12.9706 27.4053 12.8988 27.4289C12.7931 27.4632 12.7192 27.4504 12.622 27.4589C12.6431 27.0622 12.5903 26.6355 12.622 26.2431C12.6389 26.0308 12.5882 26.0651 12.827 26.0737Z" fill="#DF6063"/>
<path d="M41.0458 26.0054V27.4614C40.9549 27.4592 40.8641 27.4657 40.7732 27.4614V26.0054C40.8641 26.0011 40.9549 26.0076 41.0458 26.0054Z" fill="#E56D6F"/>
<path d="M42.0707 26.0039C42.1235 26.0189 42.2038 26.0404 42.208 26.0811C42.2249 26.2505 42.2271 27.3484 42.1616 27.4149C42.1383 27.4384 42.1066 27.4513 42.0707 27.4599C41.9798 27.4599 41.889 27.4599 41.7981 27.4599V26.0039C41.889 26.0039 41.9798 26.0039 42.0707 26.0039Z" fill="#ED7D7E"/>
<path d="M42.3454 26.0039C42.3792 26.0082 42.413 26.0168 42.4362 26.0361C42.4912 26.0768 42.4764 27.3591 42.4362 27.4149C42.4193 27.4384 42.3834 27.4513 42.3454 27.4599C42.2545 27.4599 42.1636 27.4599 42.0728 27.4599V26.0039C42.1636 26.0039 42.2545 26.0039 42.3454 26.0039Z" fill="#EF8182"/>
<path d="M9.75224 26.0039V27.4599C9.6001 27.447 9.55783 27.447 9.40991 27.3913C9.55572 26.9817 9.44584 26.5035 9.47753 26.0747C9.58742 26.0339 9.63179 26.0189 9.75013 26.006L9.75224 26.0039Z" fill="#F99494"/>
<path d="M40.431 26.0039V27.4599C40.2556 27.4449 40.245 27.4384 40.0886 27.3913C40.245 26.9946 40.1161 26.4949 40.1562 26.0747C40.2387 26.0511 40.3485 26.0146 40.4288 26.006L40.431 26.0039Z" fill="#DF6265"/>
<path d="M14.9442 14.0778C14.566 14.1893 14.1666 14.631 13.987 14.9784C13.7419 14.2879 14.2765 13.8355 14.9442 14.0778Z" fill="#FC9B9B"/>
<path d="M36.8787 17.198C36.8364 17.2344 36.811 17.2838 36.7413 17.3374C36.5532 17.2902 36.3715 17.1337 36.1961 16.8721C35.9869 16.7134 35.8263 16.544 35.7164 16.3682C35.7946 16.2438 35.8644 16.2288 35.9214 16.1602C36.2468 16.4689 36.6821 16.7927 36.8787 17.2001V17.198Z" fill="#E16467"/>
<path d="M37.9712 16.0886C37.9247 16.1358 37.8803 16.1808 37.8338 16.228C37.6352 16.2001 37.4492 16.05 37.2717 15.7798C37.0499 15.619 36.8956 15.4453 36.809 15.2588C36.8787 15.188 36.9442 15.1215 37.0139 15.0508C37.3394 15.3596 37.7747 15.6833 37.9712 16.0908V16.0886Z" fill="#ED7D7F"/>
<path d="M16.4488 15.5352C16.4932 15.5823 16.5397 15.6252 16.5862 15.6745C16.2608 15.9833 15.8254 16.3071 15.6289 16.7145C15.5592 16.6459 15.4916 16.573 15.424 16.5065C15.7282 16.1763 16.0473 15.7346 16.4488 15.5352Z" fill="#E97476"/>
<path d="M37.8359 16.2292C37.7683 16.2999 37.7007 16.3686 37.631 16.4372C37.4344 16.0298 36.9991 15.706 36.6737 15.3972C36.7202 15.3479 36.7646 15.305 36.8111 15.2578C37.2126 15.4572 37.5316 15.899 37.8359 16.2292Z" fill="#EB797B"/>
<path d="M42.5504 26.0039V27.4599C42.4828 27.4599 42.4131 27.4599 42.3455 27.4599V26.0039C42.4131 26.0039 42.4828 26.0039 42.5504 26.0039Z" fill="#F18485"/>
<path d="M36.7413 17.3386C36.6462 17.4093 36.7244 17.42 36.5363 17.4779C36.363 17.0941 35.9489 16.7918 35.6488 16.5066C35.6699 16.4444 35.6847 16.4208 35.7164 16.3672C36.1179 16.5666 36.437 17.0083 36.7413 17.3386Z" fill="#DF6265"/>
<path d="M43.7803 27.1819C43.6535 26.9052 43.7 26.5643 43.7803 26.2812C44.0782 26.6308 44.0677 26.8473 43.7803 27.1819Z" fill="#FC9D9D"/>
<path d="M22.803 37.79C22.2578 37.79 21.7084 37.79 21.1632 37.79V22.6749C21.2181 22.4819 21.495 22.1774 21.6619 21.9994C21.7718 21.8815 22.2853 21.3883 22.3825 21.3583H22.5959C22.5706 21.1696 22.6044 21.1524 22.7333 21.2875L22.8706 21.354C22.8939 26.8026 22.915 32.2534 22.9382 37.7043L22.8009 37.79H22.803Z" fill="#DC4149"/>
<path d="M19.5235 24.0626C19.5827 24.069 19.9229 24.2384 19.9778 24.2942C20.3793 24.6909 20.1004 25.9517 19.5911 26.1425C18.169 26.6765 18.4056 23.9404 19.5235 24.0626Z" fill="#E35B5F"/>
<path d="M22.598 21.359C22.374 21.5241 22.0233 21.8501 21.8098 22.0495C21.5795 22.2661 21.5182 22.5512 21.1632 22.6778C20.8293 22.7957 20.506 22.7142 20.3116 22.3969C19.9334 21.7793 20.5039 21.3354 20.8885 20.9452C21.0195 20.9302 21.1695 20.9602 21.3386 21.0331L22.2472 21.0953C22.3909 21.1424 22.5642 21.2003 22.598 21.3633V21.359Z" fill="#E66266"/>
<path d="M24.2379 20.4577C24.3583 20.6228 24.1681 20.7451 24.0329 20.5971C23.9103 20.8008 23.6969 20.9509 23.3947 21.0453C23.1686 21.2297 22.9489 21.3111 22.7354 21.2897C22.6953 21.3176 22.6382 21.3304 22.5981 21.3583C22.4459 21.3798 22.3508 21.2575 22.2156 21.2254C21.7972 21.1289 21.1337 21.3026 20.8885 20.9423C20.99 20.8394 21.1294 20.685 21.2309 20.595C21.5457 20.3183 21.8437 20.1275 22.1881 19.9023C22.2875 19.9259 22.391 19.9881 22.503 20.0868C22.9869 19.9624 23.2489 19.9967 23.6377 20.3548C23.8427 20.046 24.352 20.031 24.2379 20.4556V20.4577Z" fill="#E86569"/>
<path d="M26.5603 20.1103V37.7922C26.2644 37.7922 25.9665 37.7922 25.6728 37.7922L25.5354 37.7429V20.2669L25.6728 20.1811C25.7848 20.001 26.4018 19.9345 26.5603 20.1125V20.1103Z" fill="#D53841"/>
<path d="M26.4926 18.5862C27.2745 18.6955 27.5048 19.6111 26.8286 20.0014C26.7568 20.0422 26.6638 20.025 26.63 20.0422C25.7361 20.085 24.8824 20.0207 24.0393 19.6326C23.735 19.7934 23.0482 19.8191 23.213 19.3495C23.5533 19.1994 24.0266 18.9593 24.3753 18.8649C24.688 18.7792 25.2079 18.6977 25.5375 18.6569C25.5819 18.6505 25.6305 18.6612 25.6749 18.6569C25.7805 18.6076 25.8946 18.584 26.0172 18.5883C26.1567 18.5819 26.3659 18.569 26.4948 18.5883L26.4926 18.5862Z" fill="#E8686D"/>
<path d="M23.2129 19.3498C23.4919 19.8559 23.8659 19.4677 24.0519 19.4956C24.1871 19.5171 24.5231 19.7058 24.8274 19.7572C25.0979 19.8022 25.6769 19.9609 25.8459 19.9716C26.0995 19.9867 26.3214 19.798 26.6278 20.0424C26.6151 20.0488 26.5982 20.1089 26.5602 20.111C26.2474 20.0617 25.9558 20.1475 25.6726 20.1796C25.6367 20.3876 25.0197 20.5056 24.9204 20.319C24.9035 20.5399 24.354 20.6235 24.2378 20.4584C23.9568 19.9931 23.775 20.5034 23.6588 20.512C23.5553 20.5184 23.2193 20.1646 23.0164 20.1432C22.8136 20.1217 22.3508 20.4691 22.1902 19.903C22.3783 19.7808 22.6149 19.5857 22.8051 19.487C22.9678 19.4034 23.1052 19.397 23.2151 19.3477L23.2129 19.3498Z" fill="#E8676B"/>
<path d="M24.0329 20.5977L24.1703 20.6641V37.707L24.0329 37.7928C23.623 37.7928 23.213 37.7928 22.8031 37.7928L22.7355 21.2903C23.1644 20.9879 23.5511 20.7971 24.0329 20.5977Z" fill="#D93E46"/>
<path d="M24.9205 20.3164L25.0578 20.3657V37.7045L24.9205 37.7903C24.6246 37.7903 24.3267 37.7903 24.033 37.7903V20.5952C24.1217 20.5587 24.2062 20.4687 24.2379 20.4558C24.4387 20.3829 24.7155 20.3657 24.9205 20.3164Z" fill="#D83C44"/>
<path d="M25.6727 20.1818V37.793C25.4233 37.793 25.1719 37.793 24.9204 37.793V20.3191C25.231 20.244 25.3409 20.2183 25.6727 20.1797V20.1818Z" fill="#D63A42"/>
<path d="M26.0151 18.5845C25.9791 18.5845 25.7932 18.6402 25.6727 18.6531C25.7319 18.5416 25.9052 18.5887 26.0151 18.5845Z" fill="#D73A43"/>
<path d="M27.1751 11.0261C27.1751 11.1419 27.1751 11.2577 27.1751 11.3735L27.097 11.5129H25.9073L25.8101 11.3735C25.8101 11.2577 25.8101 11.1419 25.8101 11.0261L25.8882 10.8867H27.0779L27.1751 11.0261Z" fill="#ED7C7D"/>
<path d="M27.1751 10.4011C27.1772 10.5169 27.1751 10.6327 27.1751 10.7485L27.0969 10.8879H25.9072L25.81 10.7485C25.81 10.6327 25.8079 10.5169 25.81 10.4011L25.8882 10.2617H27.0779L27.1751 10.4011Z" fill="#F28687"/>
<path d="M27.1752 12.2761C27.1709 12.3919 27.1836 12.5077 27.1752 12.6235C27.1709 12.6621 27.1646 12.6985 27.1435 12.7157C27.0949 12.7586 25.8988 12.7629 25.8544 12.7157C25.8312 12.6921 25.8185 12.6599 25.8101 12.6235C25.8037 12.5098 25.8143 12.3919 25.8101 12.2761L25.8883 12.1367H27.078L27.1752 12.2761Z" fill="#E16568"/>
<path d="M27.1751 11.6501C27.1751 11.7659 27.1772 11.8817 27.1751 11.9975L27.0969 12.1368H25.9072L25.81 11.9975C25.8079 11.8817 25.81 11.7659 25.81 11.6501C25.8248 11.5965 25.8459 11.5171 25.8882 11.5107C26.0065 11.4978 27.0293 11.4764 27.0779 11.5107C27.1265 11.545 27.1624 11.5879 27.1751 11.6501Z" fill="#E77173"/>
<path d="M27.1752 10.1277C27.1815 10.2199 27.1731 10.3121 27.1752 10.4043H25.808C25.8101 10.3121 25.808 10.2199 25.808 10.1277L25.8862 9.98828H27.0759L27.1731 10.1277H27.1752Z" fill="#F58C8D"/>
<path d="M27.1752 11.375C27.1752 11.4672 27.1752 11.5594 27.1752 11.6516H25.808C25.808 11.5594 25.808 11.4672 25.808 11.375H27.1752Z" fill="#EA7678"/>
<path d="M27.1752 10.75C27.1752 10.8422 27.1752 10.9344 27.1752 11.0266H25.808C25.808 10.9344 25.808 10.8422 25.808 10.75H27.1752Z" fill="#EF8082"/>
<path d="M25.81 10.1243C25.81 10.0321 25.8079 9.93986 25.81 9.84766H27.1371C27.2131 9.85838 27.1709 10.0449 27.1772 10.1243H25.81Z" fill="#F89191"/>
<path d="M27.1752 11.9961C27.173 12.0883 27.1794 12.1805 27.1752 12.2727H25.8079C25.8058 12.1805 25.8079 12.0883 25.8079 11.9961H27.1752Z" fill="#E46B6D"/>
<path d="M27.1751 12.6211C27.1709 12.6897 27.1836 12.7648 27.1751 12.8291H25.8079C25.7995 12.7626 25.8121 12.6897 25.8079 12.6211H27.1751Z" fill="#DF6164"/>
</svg>
