<svg width="149" height="149" viewBox="0 0 149 149" fill="none" xmlns="http://www.w3.org/2000/svg">
<g style="mix-blend-mode:soft-light">
<path d="M86.5267 125.376C83.3637 122.211 80.2617 119.109 77.1269 115.973C75.6152 116.83 74.0145 117.939 72.2563 118.676C70.3555 119.473 68.2989 119.895 66.3313 120.545C65.9274 120.679 65.3171 121.092 65.3112 121.384C65.2443 125.582 65.2651 129.782 65.2651 134.086C65.9794 134.119 66.5481 134.122 67.1124 134.174C68.636 134.312 69.7096 135.463 69.7259 136.951C69.7437 138.448 68.7206 139.723 67.1807 139.766C63.9896 139.857 60.7925 139.855 57.6013 139.772C56.0703 139.732 55.0011 138.448 55.0041 136.984C55.0071 135.482 56.1757 134.275 57.7587 134.171C58.2814 134.137 58.8071 134.165 59.5288 134.165C59.5288 132.278 59.5288 130.503 59.5288 128.73C59.5288 126.406 59.5614 124.082 59.4976 121.761C59.4872 121.36 59.156 120.72 58.8338 120.613C56.8677 119.966 54.7962 119.607 52.8895 118.83C51.0289 118.071 49.3242 116.931 47.6566 116.015C44.5694 119.109 41.4421 122.242 38.2598 125.432C38.5375 125.734 38.9919 126.161 39.3706 126.648C40.2793 127.815 40.2006 129.32 39.2176 130.359C38.1826 131.452 36.5477 131.682 35.425 130.631C33.061 128.414 30.7638 126.12 28.5497 123.754C27.4895 122.621 27.7196 121.005 28.8215 119.966C29.9188 118.931 31.4216 118.895 32.6393 119.901C33.0788 120.263 33.4798 120.674 33.8139 120.985C36.9694 117.828 40.0729 114.723 43.27 111.526C42.6865 110.593 41.8237 109.571 41.3544 108.392C40.3417 105.849 39.5517 103.216 38.6147 100.641C38.4736 100.253 38.0311 99.6979 37.7208 99.6935C33.5644 99.6296 29.408 99.6519 25.1106 99.6519C25.0705 100.344 25.0541 100.953 24.9962 101.559C24.8507 103.066 23.6598 104.174 22.2001 104.181C20.8102 104.188 19.4707 103.155 19.4291 101.728C19.3326 98.4416 19.3311 95.148 19.4321 91.8618C19.4767 90.4155 20.7805 89.4354 22.2134 89.4488C23.6999 89.4621 24.8596 90.5298 24.9947 92.0549C25.0408 92.5791 25.0022 93.1107 25.0022 93.7017C25.3482 93.7834 25.614 93.9021 25.8813 93.9036C29.754 93.917 33.6268 93.9348 37.498 93.8814C37.8752 93.8754 38.4692 93.476 38.582 93.1329C39.2161 91.2129 39.5725 89.1889 40.3373 87.3283C41.102 85.4676 42.238 83.7599 43.1527 82.0908C40.0804 79.0215 36.9486 75.8941 33.7545 72.7045C33.4501 72.9777 33.015 73.4247 32.5249 73.7974C31.3191 74.7121 29.6946 74.5844 28.7027 73.5331C27.6736 72.4431 27.5652 70.8453 28.6403 69.7182C30.8113 67.4433 33.0402 65.2203 35.3166 63.0508C36.3903 62.0277 38.1187 62.1554 39.1404 63.1488C40.1873 64.169 40.2972 65.7579 39.3616 66.9726C38.9815 67.467 38.5212 67.9007 38.1366 68.3194C41.2832 71.4586 44.3956 74.5666 47.6328 77.7964C51.0363 75.1858 54.9937 73.5167 59.4471 72.9138V59.5716C58.9348 59.5419 58.424 59.524 57.9161 59.4825C56.1357 59.334 54.9314 58.0896 55.0086 56.4888C55.0828 54.9459 56.3094 53.7817 58.0141 53.7595C60.8697 53.7223 63.7252 53.7312 66.5808 53.755C68.4429 53.7699 69.6532 54.8464 69.7215 56.4725C69.7942 58.1772 68.6122 59.3622 66.71 59.4884C66.2838 59.5166 65.8576 59.533 65.3468 59.5582V72.8916C69.674 73.545 73.6403 75.0878 77.0274 77.7399C80.1711 74.5458 83.2806 71.3888 86.4688 68.1501C86.2386 67.8962 85.799 67.4596 85.4159 66.9785C84.5056 65.8366 84.5576 64.3026 85.5124 63.2646C86.497 62.1955 88.2195 61.943 89.3109 62.9632C91.6765 65.1758 93.9707 67.473 96.1922 69.8311C97.2139 70.9166 96.9896 72.6421 95.9398 73.637C94.884 74.6364 93.2832 74.6705 92.1086 73.6964C91.6676 73.3311 91.2637 72.9198 90.9102 72.5916C87.7399 75.7605 84.6319 78.867 81.408 82.0879C84.023 85.4632 85.6312 89.4443 86.2831 93.8309H99.6106C99.6581 93.1374 99.6521 92.5137 99.7531 91.9064C100.009 90.3754 101.21 89.3924 102.69 89.4503C104.16 89.5067 105.368 90.5981 105.402 92.1395C105.47 95.2356 105.466 98.3347 105.402 101.432C105.371 102.957 104.16 104.087 102.713 104.169C101.284 104.249 100.023 103.223 99.765 101.709C99.6596 101.094 99.667 100.461 99.6165 99.7439H86.4717C85.8525 101.808 85.3892 103.939 84.568 105.921C83.7424 107.914 82.5618 109.761 81.5729 111.606C84.6259 114.66 87.7592 117.798 90.931 120.971C91.3171 120.627 91.7893 120.137 92.3313 119.74C93.5045 118.882 95.0458 119.029 96.0333 120.037C96.9896 121.014 97.1856 122.721 96.2189 123.745C93.9945 126.102 91.7047 128.401 89.3451 130.621C88.2299 131.67 86.5727 131.455 85.5436 130.376C84.5844 129.369 84.5012 127.804 85.3832 126.656C85.7589 126.167 86.2059 125.734 86.5267 125.377V125.376Z" fill="white"/>
<path d="M134.038 39.8998H128.162C127.293 42.0055 126.47 43.9998 125.664 45.9525C127 47.289 128.423 48.713 129.918 50.2084C130.059 50.1445 130.355 49.9871 130.665 49.8698C131.945 49.3872 133.28 49.7451 134.015 50.8335C134.767 51.9487 134.847 53.1872 133.95 54.1955C132.57 55.7472 131.091 57.2218 129.553 58.6147C128.493 59.574 127.005 59.4685 125.961 58.5835C124.812 57.6094 124.688 56.3279 125.686 54.2831C124.433 53.0758 123.135 51.7898 121.784 50.5603C121.579 50.3732 121.074 50.3153 120.805 50.4296C118.992 51.1973 117.206 52.0274 115.159 52.9496C115.159 54.4865 115.125 56.3115 115.194 58.1306C115.204 58.4246 115.614 58.8077 115.93 58.9681C117.376 59.6987 118.097 60.8688 117.823 62.1949C117.525 63.6472 116.447 64.4921 114.763 64.5233C113.118 64.553 111.472 64.553 109.827 64.5233C108.131 64.4921 107.055 63.6368 106.796 62.186C106.545 60.7708 107.212 59.6987 108.675 58.9622C109.012 58.7929 109.407 58.3355 109.422 57.9955C109.497 56.2595 109.456 54.5207 109.456 52.7313C108.357 52.3705 107.289 52.0883 106.276 51.671C105.255 51.2508 104.288 50.6969 103.084 50.094C101.894 51.334 100.628 52.5947 99.4501 53.9326C99.2303 54.1821 99.2318 54.7865 99.358 55.1503C99.8792 56.6501 99.5674 57.9598 98.4002 58.7587C97.2256 59.5621 95.8625 59.4418 94.7027 58.3414C93.439 57.1431 92.2095 55.9076 91.0037 54.6499C89.8439 53.4411 89.7088 52.0334 90.5627 50.8424C91.3972 49.6782 92.6371 49.4199 94.1904 49.944C94.5661 50.0703 95.0739 49.8134 95.5194 49.7258C95.558 49.7183 95.5877 49.6604 95.6219 49.6263C96.6836 48.566 98.2993 47.6572 98.6408 46.401C98.9452 45.2798 97.8241 43.7815 97.3637 42.4376C97.0831 41.6179 96.8633 40.776 96.5812 39.8301C94.8096 39.8301 93.0232 39.79 91.2428 39.8672C90.9176 39.882 90.4899 40.3201 90.3236 40.6661C89.6464 42.0783 88.4362 42.8341 87.1012 42.5668C85.6801 42.2817 84.8085 41.2393 84.7773 39.6652C84.7416 37.8759 84.7402 36.0835 84.7773 34.2942C84.8114 32.7424 85.7351 31.6524 87.1265 31.4089C88.4243 31.1802 89.7563 31.8677 90.2256 33.2398C90.4914 34.015 90.8745 34.1724 91.5828 34.1575C93.2237 34.1249 94.8661 34.1471 96.3956 34.1471C97.2865 31.9999 98.1285 29.9685 99.1056 27.6104C97.9681 26.5457 96.6866 25.3028 95.3457 24.1297C95.1126 23.9262 94.5795 23.8832 94.2587 23.9901C92.6178 24.5306 91.3408 24.2292 90.5374 23.0234C89.7237 21.8027 89.9033 20.4722 91.1017 19.2234C92.1055 18.1765 93.1465 17.1623 94.177 16.1391C95.6768 14.6497 97.138 14.3409 98.4151 15.2363C99.7278 16.1555 99.9238 17.5038 99.0774 19.4179C100.533 20.8613 101.963 22.2809 103.33 23.6367C105.241 22.8481 107.239 22.0255 109.37 21.1464V15.3328C108.782 15.0314 108.156 14.8368 107.696 14.4463C106.778 13.6682 106.426 12.6465 106.824 11.4467C107.216 10.2676 108.035 9.55041 109.267 9.51032C111.248 9.44498 113.235 9.43161 115.216 9.50289C116.658 9.55486 117.734 10.575 117.874 11.9204C118.021 13.3296 117.437 14.4329 116.093 14.9037C115.287 15.1858 115.096 15.5986 115.128 16.3663C115.18 17.6226 115.174 18.8833 115.131 20.1396C115.103 20.9593 115.28 21.378 116.206 21.6542C117.95 22.174 119.611 22.9655 121.294 23.6396C122.608 22.3151 124.029 20.8821 125.489 19.412C125.343 19.011 125.045 18.4839 124.97 17.9255C124.809 16.7108 125.306 15.7293 126.372 15.1249C127.433 14.522 128.591 14.5191 129.494 15.3328C131.035 16.7242 132.52 18.1928 133.901 19.7416C134.795 20.744 134.767 21.9958 133.971 23.0947C133.141 24.2395 131.991 24.5826 130.637 24.097C130.325 23.9856 130.027 23.8371 129.748 23.7168C128.312 25.1513 126.916 26.5472 125.631 27.8302C126.366 29.7665 127.054 31.6569 127.823 33.5131C127.943 33.8026 128.432 34.1056 128.76 34.116C130.496 34.1754 132.235 34.1442 133.977 34.1442C134.147 33.7091 134.26 33.3438 134.43 33.0052C135.041 31.7816 136.069 31.2069 137.4 31.4148C138.717 31.6212 139.676 32.4335 139.743 33.8071C139.847 35.9291 139.851 38.063 139.735 40.1835C139.66 41.5556 138.69 42.3381 137.356 42.5297C136.076 42.7138 135.095 42.1614 134.473 41.0299C134.289 40.6958 134.191 40.3141 134.032 39.8998H134.038Z" fill="white"/>
<path d="M20.2013 41.3209C19.8895 40.666 19.5717 40.0156 19.2688 39.3563C18.9941 38.7564 18.8515 37.7407 18.4461 37.6248C17.5047 37.3561 16.4355 37.463 15.4287 37.5447C15.1614 37.5669 14.906 38.0317 14.6922 38.3272C13.8873 39.4365 12.8003 39.8374 11.5069 39.484C10.2566 39.1425 9.54086 38.2396 9.49334 36.9447C9.43543 35.3989 9.43246 33.8471 9.50077 32.3013C9.55868 31.0005 10.313 30.1496 11.5574 29.7902C12.8241 29.4249 13.9452 29.8185 14.5927 30.9054C15.5252 32.4735 16.9315 31.6316 18.112 31.6954C18.4357 31.7133 18.8649 30.7941 19.1485 30.255C19.5509 29.4903 19.8642 28.6795 20.3884 27.5019C19.7662 26.9881 19.052 26.3362 18.2694 25.7838C17.9769 25.5774 17.5032 25.4854 17.1453 25.5418C15.7034 25.7705 14.514 25.4334 13.8235 24.0865C13.1389 22.7501 13.5101 21.5577 14.5451 20.5331C15.4732 19.6139 16.3746 18.6635 17.3294 17.774C18.311 16.8578 19.4618 16.6336 20.6706 17.2795C21.8808 17.927 22.3946 19.0184 22.0887 20.3281C21.6818 22.0715 23.3182 22.4308 24.0681 23.3559C24.2374 23.5638 25.1299 23.2015 25.6823 23.0708C25.9124 23.0159 26.1203 22.8704 26.3446 22.7783C28.3017 21.972 28.8096 21.0706 28.3285 19.0303C28.2468 18.6843 27.8429 18.3799 27.5281 18.1319C26.5257 17.3464 26.0179 16.3796 26.3342 15.0967C26.6638 13.7587 27.5756 13.0044 28.9106 12.9227C30.4059 12.8321 31.9116 12.838 33.4085 12.9108C34.736 12.9747 35.6983 13.6577 36.0532 14.9986C36.4036 16.3262 35.9789 17.434 34.8326 18.1378C33.3639 19.0392 34.2118 20.3994 34.1198 21.5384C34.096 21.8368 34.9231 22.2719 35.4206 22.5288C36.2314 22.9476 37.0926 23.2713 38.2969 24.0465C38.8167 23.3485 39.3869 22.6818 39.8368 21.9408C40.1012 21.5057 40.3551 20.9281 40.2927 20.4558C40.1086 19.0422 40.5021 17.9478 41.7584 17.2706C42.9656 16.6187 44.1224 16.8593 45.0936 17.7829C46.1805 18.8165 47.2527 19.8708 48.2506 20.9875C49.0732 21.9066 49.1282 23.0233 48.5787 24.1044C48.0516 25.1409 47.0938 25.8581 45.9845 25.5507C44.611 25.1676 43.9546 25.8967 43.1899 26.7001C42.8587 27.0475 42.44 27.3133 42.1296 27.5628C42.6672 28.9334 43.1037 30.0991 43.5908 31.2425C43.6843 31.4608 43.9962 31.7563 44.1803 31.7385C45.5093 31.6093 47.0314 32.4201 48.0293 30.6679C48.5758 29.7071 49.734 29.4442 50.8774 29.8006C52.0491 30.1659 52.8272 30.9396 52.8896 32.1855C52.9697 33.7788 52.9608 35.3796 52.9089 36.9744C52.8658 38.2827 52.1204 39.1558 50.8745 39.4899C49.6435 39.8211 48.5817 39.4617 47.7932 38.4148C47.2274 37.6649 44.7045 37.0843 43.9279 37.5684C43.723 37.6961 43.6309 38.0288 43.524 38.2812C43.0933 39.3043 42.679 40.3319 42.0554 41.851C42.6211 42.3099 43.3666 42.9974 44.2026 43.5483C44.5367 43.7681 45.0832 43.7844 45.5093 43.7235C46.8013 43.5424 47.8303 43.9433 48.4852 45.0496C49.1698 46.2049 49.0911 47.4062 48.1763 48.4086C47.1339 49.5505 46.1137 50.783 44.8515 51.6279C44.0972 52.1328 42.7518 52.3288 41.938 52.0021C41.1881 51.7022 40.2051 50.3806 40.3536 49.748C40.7991 47.8354 39.5324 47.0587 38.5345 46.0237C38.4024 45.8871 38.2465 45.7713 38.0994 45.6451C36.9234 46.1128 35.7621 46.5628 34.6128 47.0394C34.4138 47.1226 34.1807 47.2755 34.096 47.4582C33.6535 48.4145 34.2311 50.636 35.0404 51.2894C36.0487 52.1031 36.4066 53.1604 36.0279 54.3959C35.6671 55.5675 34.8355 56.2981 33.5971 56.3545C32.0512 56.4243 30.4995 56.4184 28.9521 56.3679C27.586 56.3233 26.7024 55.566 26.3431 54.2504C25.9956 52.9748 26.4025 51.8522 27.5013 51.2344C29.068 50.3553 28.1978 48.9951 28.2839 47.8695C28.3106 47.5339 27.4316 47.1167 26.9519 46.7603C26.8019 46.6489 26.597 46.6133 26.4173 46.542C24.1691 45.6332 24.1409 45.6079 22.5535 47.3958C22.2416 47.7478 22.0783 48.3922 22.1258 48.8733C22.2654 50.2751 21.8986 51.3948 20.6082 52.0348C19.3995 52.6332 18.2471 52.4209 17.2745 51.4765C16.2677 50.4994 15.2624 49.5163 14.3046 48.4917C13.3809 47.5027 13.2042 46.3356 13.868 45.1491C14.5273 43.973 15.5698 43.5632 16.9329 43.7131C17.4527 43.7696 18.0808 43.5216 18.5456 43.232C19.2361 42.8029 19.8286 42.2119 20.4612 41.6906C20.3751 41.5674 20.2889 41.4456 20.2028 41.3224L20.2013 41.3209Z" fill="white"/>
</g>
</svg>
