<svg width="167" height="153" viewBox="0 0 167 153" fill="none" xmlns="http://www.w3.org/2000/svg">
<g style="mix-blend-mode:soft-light" clip-path="url(#clip0_693_835)">
<path d="M0.0272409 70.5635C0.0272409 59.7338 0.0617206 48.9022 2.00085e-05 38.0725C-0.0126831 35.8257 0.82572 34.4256 2.80377 33.3404C22.45 22.5708 42.0744 11.7647 61.6589 0.882172C63.7948 -0.304947 65.5098 -0.284919 67.6239 0.887634C87.1631 11.7338 106.738 22.5161 126.332 33.2621C128.287 34.3345 129.185 35.671 129.152 37.9633C129.049 45.2407 129.152 52.52 129.085 59.7975C129.07 61.2814 129.593 62.0953 130.862 62.8127C141.98 69.096 153.045 75.474 164.175 81.7392C166.2 82.879 167.011 84.3538 167 86.657C166.938 100.107 166.937 113.558 167 127.008C167.011 129.328 166.145 130.77 164.136 131.902C152.252 138.601 140.4 145.356 128.581 152.171C126.641 153.29 125.027 153.272 123.095 152.158C111.175 145.286 99.2001 138.515 87.2701 131.664C86.1813 131.037 85.3574 131.028 84.2541 131.618C78.5703 134.652 72.8231 137.563 67.1394 140.594C65.3737 141.536 63.8348 141.499 62.0727 140.523C42.2686 129.559 22.4445 118.631 2.60233 107.737C0.738613 106.712 -0.00179472 105.316 0.00727891 103.229C0.052647 92.3413 0.0290556 81.4533 0.0290556 70.5635H0.0272409ZM6.89053 43.9171C6.85061 44.4487 6.78709 44.9039 6.78709 45.3591C6.78165 63.8705 6.79435 82.3819 6.75805 100.895C6.75624 102.077 7.23351 102.643 8.19895 103.175C25.183 112.513 42.1488 121.886 59.1274 131.24C59.7135 131.562 60.2634 132.057 61.0328 131.946C61.4611 131.36 61.2942 130.701 61.2942 130.087C61.305 111.226 61.2851 92.365 61.3377 73.504C61.3413 71.9983 60.8296 71.2372 59.523 70.5708C42.6787 61.9715 25.8635 53.3157 9.03372 44.6854C8.42941 44.3759 7.86685 43.9152 6.89234 43.9189L6.89053 43.9171ZM122.263 42.8538C121.409 42.8283 120.848 43.3017 120.251 43.6203C103.352 52.6147 86.4698 61.6383 69.5584 70.6072C68.3571 71.2445 67.9415 71.9946 67.9433 73.3256C67.9796 92.3559 67.9651 111.386 67.9814 130.417C67.9814 131.014 67.7836 131.698 68.4442 132.274C68.9922 132.012 69.5675 131.753 70.1264 131.463C74.2477 129.331 78.3235 127.106 82.5047 125.098C84.2069 124.281 84.8184 123.29 84.8021 121.38C84.7114 109.975 84.813 98.5664 84.7168 87.1613C84.6932 84.4703 85.5607 82.797 87.9833 81.4479C99.035 75.2993 109.978 68.954 120.99 62.7344C122.158 62.0753 122.606 61.3288 122.588 59.9869C122.518 54.867 122.565 49.7452 122.554 44.6235C122.554 44.0573 122.681 43.4582 122.263 42.8519V42.8538ZM160.215 91.1797C159.542 91.4455 159.211 91.5366 158.921 91.6968C149.421 96.9259 139.933 102.181 130.413 107.371C129.279 107.989 129.105 108.821 129.107 109.935C129.125 120.581 129.112 131.227 129.127 141.873C129.127 142.477 128.927 143.169 129.539 143.648C130.239 143.657 130.74 143.213 131.283 142.905C140.407 137.714 149.512 132.489 158.66 127.34C159.832 126.68 160.255 125.95 160.247 124.607C160.193 114.136 160.217 103.664 160.217 93.1934V91.1815L160.215 91.1797ZM122.3 143.606C122.646 143.076 122.556 142.539 122.556 142.026C122.561 131.263 122.543 120.503 122.583 109.74C122.588 108.513 122.122 107.874 121.068 107.319C111.832 102.457 102.626 97.5414 93.4057 92.6527C92.8649 92.365 92.3604 91.8898 91.6472 92.07C91.2879 92.6691 91.4295 93.3227 91.4295 93.9454C91.4204 104.125 91.4531 114.305 91.3877 124.485C91.3787 125.91 91.8723 126.662 93.0754 127.341C102.32 132.554 111.528 137.832 120.752 143.082C121.193 143.333 121.599 143.712 122.302 143.604L122.3 143.606Z" fill="white"/>
</g>
<defs>
<clipPath id="clip0_693_835">
<rect width="167" height="153" fill="white"/>
</clipPath>
</defs>
</svg>
