<svg width="140" height="140" viewBox="0 0 140 140" fill="none" xmlns="http://www.w3.org/2000/svg">
<g style="mix-blend-mode:soft-light">
<path d="M70.0924 1.22656C96.1091 1.34453 118.476 20.2875 122.873 45.8153C124.747 56.6882 122.689 66.8504 118.313 76.7327C112.73 89.3409 104.92 100.541 96.4204 111.3C89.1391 120.517 81.2822 129.221 72.9279 137.474C71.0148 139.363 69.3178 139.417 67.4914 137.605C54.0915 124.313 41.8357 110.065 31.5228 94.2188C26.0793 85.8531 21.2497 77.1363 18.6061 67.4474C13.7752 49.7423 18.0632 33.9603 29.5998 20.097C38.0025 10.0002 48.999 4.11747 61.9583 2.00117C64.6403 1.56341 67.3792 1.47529 70.0924 1.22656ZM70.2004 93.059C91.2384 93.0221 108.361 75.8557 108.342 54.822C108.322 33.7798 91.1801 16.6504 70.1393 16.649C49.0459 16.6476 31.8781 33.858 31.9307 54.9514C31.9833 75.9822 49.171 93.0974 70.2004 93.0604V93.059Z" fill="white"/>
<path d="M49.3955 55.9455C48.3907 55.9455 47.5379 55.9497 46.6837 55.9455C44.7906 55.9327 43.6351 55.2505 43.0807 53.8235C42.5279 52.3993 42.9045 51.1856 44.367 49.8538C51.0911 43.7309 57.821 37.6151 64.5494 31.4964C65.6253 30.5171 66.6827 29.5166 67.7842 28.5657C69.3434 27.2212 70.9309 27.1643 72.4404 28.5302C80.3982 35.7276 88.3347 42.9506 96.2598 50.185C97.448 51.2694 97.7265 52.5912 97.1594 53.8917C96.5483 55.2931 95.424 55.9341 93.9175 55.9426C92.9681 55.9483 92.0172 55.9426 90.8759 55.9426C90.8759 56.4941 90.8759 56.9731 90.8759 57.4535C90.8759 63.592 90.8788 69.7306 90.8759 75.8691C90.8745 78.7686 89.709 79.9511 86.8565 79.9568C84.6734 79.9624 82.4903 79.9752 80.3086 79.9525C77.9962 79.9298 76.7028 78.6236 76.6914 76.287C76.673 72.6044 76.6943 68.9204 76.6829 65.2379C76.6758 62.6341 75.4421 61.4146 72.8255 61.4032C70.9153 61.3947 69.0051 61.3791 67.0963 61.4089C64.9374 61.4416 63.6113 62.752 63.5957 64.9095C63.5672 68.6376 63.5957 72.3671 63.5843 76.0951C63.5772 78.6989 62.3364 79.944 59.7497 79.9568C57.612 79.9667 55.4758 79.9639 53.3382 79.9568C50.6406 79.9482 49.4012 78.7302 49.3984 76.0624C49.3913 69.9239 49.3955 63.7853 49.3955 57.6467V55.944V55.9455Z" fill="white"/>
</g>
</svg>
