<svg width="149" height="149" viewBox="0 0 149 149" fill="none" xmlns="http://www.w3.org/2000/svg">
<g style="mix-blend-mode:soft-light">
<path d="M0.290161 79.1023C10.4796 70.6958 20.675 62.2953 30.8584 53.8814C45.0736 42.136 59.2798 30.3817 73.4906 18.6319C73.8258 18.3553 74.1686 18.0877 74.6586 17.6953C80.8628 22.8186 87.0744 27.9494 93.5567 33.3011V20.2179H131.593V21.9918C131.593 35.7876 131.605 49.5834 131.569 63.3807C131.566 64.4075 131.892 65.0419 132.68 65.6838C137.821 69.8705 142.93 74.0978 148.006 78.3612C148.487 78.7656 148.956 79.5172 148.958 80.108C149.011 94.678 148.999 109.25 148.997 123.82C148.997 124.048 148.967 124.277 148.932 124.78C124.084 104.239 99.415 83.8452 74.6526 63.3747C71.7182 65.7965 68.8138 68.1898 65.9139 70.5876C44.4302 88.3506 22.948 106.117 1.46124 123.877C1.09443 124.18 0.68102 124.428 0.290161 124.702C0.290161 109.502 0.290161 94.3022 0.290161 79.1023Z" fill="white" fill-opacity="0.65"/>
<path d="M71.9857 87.9062V102.718H53.0095V87.9062H71.9857Z" fill="white" fill-opacity="0.65"/>
<path d="M96.3408 87.9375V102.679H77.318V87.9375H96.3408Z" fill="white" fill-opacity="0.65"/>
<path d="M53.014 108.016H71.9572V122.789H53.014V108.016Z" fill="white" fill-opacity="0.65"/>
<path d="M96.3031 122.786H77.3074V108.031H96.3031V122.786Z" fill="white" fill-opacity="0.65"/>
</g>
</svg>
