<svg width="91" height="149" viewBox="0 0 91 149" fill="none" xmlns="http://www.w3.org/2000/svg">
<g style="mix-blend-mode:soft-light" clip-path="url(#clip0_1268_15820)">
<path d="M48.4219 0.00298164C49.5769 0.627635 49.9415 1.58772 49.9041 2.88772C49.8249 5.69791 49.8758 8.51258 49.8817 11.3243C49.8817 11.9117 49.8817 12.4975 49.5381 13.0044C48.9867 13.8124 48.265 14.4073 47.2311 14.203C46.209 14.0018 45.5785 13.2236 45.5591 12.2426C45.4903 8.7526 45.5217 5.2611 45.5352 1.7696C45.5381 0.96307 46.2568 0.568002 46.6722 0H48.4219V0.00298164Z" fill="white"/>
<path d="M41.6563 86.4559C35.0669 86.9031 28.37 84.6654 21.9435 81.317C17.981 79.2522 14.1305 77.0041 10.3681 74.5979C9.62554 74.1223 9.19521 73.5484 8.94419 72.7001C7.55311 68.01 6.03203 63.3526 6.15755 58.3659C6.65212 38.8361 19.5842 23.7759 38.8771 20.3485C51.5522 18.0958 63.3727 20.186 73.8842 27.8309C82.407 34.0297 86.9284 42.6571 88.7274 52.9452C89.9451 59.9059 88.5167 66.4133 86.2963 72.8924C86.0887 73.4977 85.6972 73.8435 85.1802 74.1507C75.344 79.9902 64.7563 83.7426 53.4662 85.551C49.816 86.1354 46.1463 86.5081 41.6563 86.4574V86.4559ZM48.8702 27.9487C48.6266 27.9487 48.3845 27.9487 48.141 27.9487C46.5303 27.9442 45.5411 28.7954 45.5172 30.2043C45.4948 31.5311 46.3794 32.2392 48.0782 32.3183C49.29 32.3749 50.5078 32.4271 51.7076 32.5955C58.4882 33.5437 64.5411 36.0408 69.2747 41.1469C74.1083 46.3618 75.9566 52.7127 76.124 59.6659C76.1628 61.264 77.0205 62.3001 78.2472 62.2584C79.5098 62.2152 80.5363 61.0225 80.4825 59.5242C80.2763 53.7771 79.081 48.27 76.118 43.2773C69.9964 32.9638 60.2528 28.9952 48.8716 27.9502L48.8702 27.9487Z" fill="white"/>
<path d="M48.1888 128.907C53.532 128.907 58.8752 128.904 64.2184 128.909C66.2833 128.91 67.1111 129.654 67.0722 131.665C67.0125 134.663 67.4219 137.687 66.8421 140.656C65.8664 145.669 61.8441 148.953 56.7265 148.978C50.8978 149.008 45.069 149.011 39.2402 148.978C33.4442 148.945 29.2351 144.737 29.1784 138.966C29.1545 136.543 29.1604 134.119 29.1784 131.697C29.1933 129.659 29.9613 128.913 32.0143 128.91C37.4053 128.904 42.7978 128.909 48.1888 128.909V128.907Z" fill="white"/>
<path d="M68.2705 126.04C65.7364 124.206 63.0499 125.086 60.4111 124.756C61.5079 120.311 62.5867 115.907 63.6819 111.507C65.6811 103.476 67.7027 95.4512 69.6735 87.4127C69.8902 86.5286 70.2354 86.0143 71.1408 85.6878C75.0705 84.2745 78.8164 82.4393 82.5593 80.5997C82.9882 80.3895 83.4245 80.1927 84.2358 79.8125C78.8657 95.3767 72.9279 110.382 68.2705 126.038V126.04Z" fill="white"/>
<path d="M28.8511 88.9141C34.526 90.7373 39.9991 91.6706 45.7024 91.6691V124.746H37.9028C34.9189 112.931 31.9261 101.088 28.8511 88.9141Z" fill="white"/>
<path d="M56.0213 124.766H50.2493V91.6773C55.2906 90.917 60.2244 89.7363 65.3285 87.8906C62.1878 100.336 59.1098 112.534 56.0228 124.766H56.0213Z" fill="white"/>
<path d="M33.4128 124.821C31.4614 124.821 29.4741 124.678 27.7289 126.308C22.5665 110.898 16.3911 96.0364 11.4304 80.3828C15.5723 82.9411 19.5737 85.0014 23.6169 86.9782C24.128 87.2287 24.3073 87.6252 24.4253 88.1008C27.4226 100.175 30.417 112.249 33.4068 124.325C33.4382 124.454 33.4113 124.598 33.4113 124.82L33.4128 124.821Z" fill="white"/>
<path d="M91 13.7519C90.9163 13.9651 90.8177 14.3453 90.6294 14.6718C89.0994 17.306 87.5768 19.9463 85.999 22.5537C85.1951 23.8821 83.7562 24.2264 82.652 23.4587C81.6016 22.7282 81.3745 21.7472 81.9871 20.6723C83.5665 17.8994 85.1862 15.1473 86.8298 12.4117C87.4274 11.4158 88.3912 11.1132 89.4774 11.4963C90.4248 11.8303 90.9656 12.5429 91 13.7534V13.7519Z" fill="white"/>
<path d="M2.32041 13.6969C2.92854 13.7536 3.51725 14.1263 3.94309 14.7718C5.69576 17.4374 7.46786 20.091 9.19363 22.773C9.93923 23.9329 9.59706 25.1732 8.43609 25.8769C7.38418 26.515 6.60572 26.1945 5.73312 24.884C3.98941 22.2706 2.20536 19.6826 0.440733 17.0826C-0.097171 16.2895 -0.152456 15.4635 0.327176 14.6257C0.727616 13.925 1.35368 13.6343 2.31892 13.6954L2.32041 13.6969Z" fill="white"/>
</g>
<defs>
<clipPath id="clip0_1268_15820">
<rect width="91" height="149" fill="white"/>
</clipPath>
</defs>
</svg>
