<svg width="27" height="28" viewBox="0 0 27 28" fill="none" xmlns="http://www.w3.org/2000/svg">
<g clip-path="url(#clip0_2275_841)">
<path d="M24.3326 0H2.6674C1.20033 0 0 1.24479 0 2.76619V25.2338C0 26.7552 1.20033 28 2.6674 28H24.3326C25.7997 28 27 26.7552 27 25.2338V2.76619C27 1.24479 25.7997 0 24.3326 0ZM13.5 24.0198C8.16372 24.0198 3.83809 19.5336 3.83809 14C3.83809 8.46639 8.16372 3.98024 13.5 3.98024C18.8363 3.98024 23.1619 8.46608 23.1619 14C23.1619 19.5339 18.836 24.0198 13.5 24.0198Z" fill="#749695"/>
<path fill-rule="evenodd" clip-rule="evenodd" d="M11.9856 17.0255C11.9856 16.0877 11.9821 15.15 11.9889 14.2126C11.9901 14.0546 11.9471 14.0051 11.7945 14.0116C11.5126 14.0235 11.2301 14.0103 10.948 14.0171C10.8339 14.0202 10.7918 13.9873 10.793 13.8619C10.7986 13.277 10.798 12.6915 10.7936 12.1063C10.7924 11.9938 10.8253 11.9566 10.935 11.9594C11.2233 11.9661 11.5126 11.9511 11.8004 11.9658C11.9672 11.9744 12.0019 11.9129 11.9984 11.7522C11.9883 11.3068 11.9883 10.8609 11.9978 10.4158C12.0093 9.87211 12.1501 9.36405 12.4625 8.92207C12.8579 8.36207 13.4198 8.10605 14.0683 8.07593C14.7342 8.04519 15.4017 8.0624 16.0685 8.05472C16.1616 8.05349 16.1891 8.08822 16.1888 8.18166C16.1859 8.77331 16.1853 9.36528 16.1891 9.95724C16.19 10.0624 16.1568 10.0946 16.0573 10.0931C15.7366 10.0879 15.4159 10.0903 15.0955 10.0913C14.6687 10.0928 14.4132 10.3202 14.3866 10.7585C14.3652 11.1098 14.3806 11.463 14.3729 11.8155C14.37 11.9409 14.442 11.9323 14.522 11.9323C15.0093 11.9314 15.4968 11.9372 15.984 11.9286C16.1272 11.9262 16.1743 11.9603 16.158 12.1164C16.0967 12.7044 16.0439 13.2936 15.9953 13.8828C15.9843 14.0159 15.9257 14.0411 15.8104 14.0392C15.426 14.0331 15.041 14.0349 14.6563 14.0374C14.3801 14.0392 14.4067 13.9953 14.4067 14.2876C14.4055 16.1228 14.4032 17.9583 14.4106 19.7938C14.4115 19.9878 14.3635 20.0357 14.1788 20.0323C13.5185 20.0197 12.8579 20.0191 12.1975 20.0326C12.0114 20.0363 11.9809 19.9709 11.9824 19.7987C11.9895 18.8745 11.9859 17.95 11.9859 17.0258L11.9856 17.0255Z" fill="#749695"/>
</g>
<defs>
<clipPath id="clip0_2275_841">
<rect width="27" height="28" fill="white"/>
</clipPath>
</defs>
</svg>
