<svg width="13" height="13" viewBox="0 0 13 13" fill="none" xmlns="http://www.w3.org/2000/svg">
<g clip-path="url(#clip0_2275_967)">
<path d="M11.7157 0H1.2843C0.577936 0 0 0.577936 0 1.2843V11.7157C0 12.4221 0.577936 13 1.2843 13H11.7157C12.4221 13 13 12.4221 13 11.7157V1.2843C13 0.577936 12.4221 0 11.7157 0ZM2.45559 4.42043C2.64481 4.00431 2.91209 3.64128 3.2256 3.31265C3.93496 2.56918 4.79387 2.09299 5.81047 1.93059C7.23348 1.70327 8.50708 2.03876 9.60758 2.98643C9.67708 3.04637 9.69435 3.08133 9.61872 3.15539C9.23028 3.53583 8.84799 3.9224 8.46341 4.3067C8.42389 4.34608 8.39734 4.39431 8.32728 4.32996C7.35834 3.44222 5.77665 3.45221 4.74707 4.40987C4.3936 4.73865 4.14216 5.1325 3.97763 5.58415C3.77514 6.18734 3.78527 6.79182 3.96621 7.3973C4.10506 7.75005 4.27773 8.08369 4.5343 8.36695C5.18659 9.0873 5.99513 9.3981 6.96378 9.2975C7.41385 9.25069 7.82397 9.09829 8.20712 8.86412C8.51108 8.63223 8.76465 8.35782 8.93119 8.00934C8.99754 7.87035 9.0442 7.72494 9.08844 7.57782C9.11884 7.4765 9.10942 7.43697 8.98398 7.43811C8.23695 7.44453 7.48977 7.44125 6.74273 7.44125C6.63723 7.44125 6.58443 7.38669 6.58434 7.27757C6.58434 6.77127 6.58676 6.26483 6.5822 5.75853C6.58134 5.66092 6.59846 5.62339 6.70834 5.62368C8.08626 5.62767 9.46431 5.62682 10.8422 5.62496C10.9166 5.62496 10.9634 5.63038 10.9762 5.72086C11.1477 6.92596 11.0103 8.07755 10.3795 9.14124C10.1864 9.46688 9.95435 9.76427 9.66381 10.0117C9.16878 10.4818 8.58442 10.7947 7.927 10.961C6.37699 11.3527 4.94828 11.1051 3.67953 10.1039C3.15496 9.68992 2.74241 9.17863 2.45159 8.57344C2.20501 8.11508 2.06288 7.62277 1.99652 7.1099C1.8815 6.22131 2.00794 5.36639 2.38481 4.55114C2.4055 4.50633 2.43176 4.46409 2.45544 4.42071" fill="#FFC676"/>
</g>
<defs>
<clipPath id="clip0_2275_967">
<rect width="13" height="13" fill="white"/>
</clipPath>
</defs>
</svg>
