<svg width="28" height="28" viewBox="0 0 28 28" fill="none" xmlns="http://www.w3.org/2000/svg">
<g clip-path="url(#clip0_2275_837)">
<path d="M14 17.331C15.8389 17.331 17.3296 15.8403 17.3296 14.0014C17.3296 12.1626 15.8389 10.6719 14 10.6719C12.1611 10.6719 10.6704 12.1626 10.6704 14.0014C10.6704 15.8403 12.1611 17.331 14 17.331Z" fill="#749695"/>
<path d="M21.7873 8.11028C21.606 7.64403 21.3896 7.31116 21.0401 6.9617C20.6907 6.61224 20.3578 6.39555 19.8916 6.21452C19.5396 6.07775 19.0107 5.91516 18.0367 5.87059C16.9834 5.82264 16.6674 5.8125 14.0002 5.8125C11.333 5.8125 11.017 5.82264 9.9637 5.87059C8.9897 5.91516 8.46074 6.07775 8.10882 6.21452C7.64256 6.39586 7.3097 6.61224 6.96023 6.9617C6.61077 7.31116 6.39409 7.64403 6.21305 8.11028C6.07628 8.4622 5.91369 8.99116 5.86913 9.96517C5.82118 11.0185 5.81104 11.3344 5.81104 14.0017C5.81104 16.6689 5.82118 16.9848 5.86913 18.0381C5.91369 19.0121 6.07628 19.5411 6.21305 19.893C6.39439 20.3593 6.61077 20.6921 6.96023 21.0416C7.3097 21.3911 7.64256 21.6078 8.10882 21.7888C8.46074 21.9256 8.9897 22.0882 9.9637 22.1327C11.017 22.1807 11.3327 22.1908 14.0002 22.1908C16.6677 22.1908 16.9834 22.1807 18.0367 22.1327C19.0107 22.0882 19.5396 21.9256 19.8916 21.7888C20.3578 21.6075 20.6907 21.3911 21.0401 21.0416C21.3896 20.6921 21.6063 20.3593 21.7873 19.893C21.9241 19.5411 22.0867 19.0121 22.1313 18.0381C22.1792 16.9848 22.1893 16.6689 22.1893 14.0017C22.1893 11.3344 22.1792 11.0185 22.1313 9.96517C22.0867 8.99116 21.9241 8.4622 21.7873 8.11028ZM14.0002 19.1311C11.1673 19.1311 8.87075 16.8345 8.87075 14.0017C8.87075 11.1688 11.1673 8.87221 14.0002 8.87221C16.8331 8.87221 19.1296 11.1688 19.1296 14.0017C19.1296 16.8345 16.8331 19.1311 14.0002 19.1311ZM19.3325 9.86804C18.6704 9.86804 18.1338 9.3314 18.1338 8.66936C18.1338 8.00732 18.6704 7.47068 19.3325 7.47068C19.9945 7.47068 20.5312 8.00732 20.5312 8.66936C20.5312 9.3314 19.9945 9.86804 19.3325 9.86804Z" fill="#749695"/>
<path d="M25.2338 0H2.76619C1.24479 0 0 1.24479 0 2.76619V25.2338C0 26.7552 1.24479 28 2.76619 28H25.2338C26.7552 28 28 26.7552 28 25.2338V2.76619C28 1.24479 26.7552 0 25.2338 0ZM23.9288 18.1186C23.8802 19.1817 23.7115 19.908 23.4644 20.5433C23.209 21.2001 22.8675 21.7573 22.3121 22.3124C21.7567 22.8678 21.1998 23.2093 20.543 23.4647C19.9077 23.7115 19.1814 23.8805 18.1182 23.9291C17.053 23.9776 16.7127 23.9893 13.9997 23.9893C11.2867 23.9893 10.9467 23.978 9.88114 23.9291C8.818 23.8805 8.09172 23.7118 7.45642 23.4647C6.7996 23.2093 6.24237 22.8678 5.68729 22.3124C5.1319 21.757 4.79043 21.2001 4.53502 20.5433C4.28821 19.908 4.11917 19.1817 4.0706 18.1186C4.02204 17.0533 4.01036 16.713 4.01036 14C4.01036 11.287 4.02173 10.947 4.0706 9.88145C4.11917 8.81831 4.2879 8.09203 4.53502 7.45673C4.79043 6.79991 5.1319 6.24268 5.68729 5.6876C6.24268 5.13221 6.7996 4.79074 7.45642 4.53532C8.09172 4.28852 8.818 4.11947 9.88114 4.07091C10.9464 4.02235 11.2867 4.01067 13.9997 4.01067C16.7127 4.01067 17.0526 4.02204 18.1182 4.07091C19.1814 4.11947 19.9077 4.28821 20.543 4.53532C21.1998 4.79074 21.757 5.13221 22.3121 5.6876C22.8675 6.24299 23.209 6.79991 23.4644 7.45673C23.7112 8.09203 23.8802 8.81831 23.9288 9.88145C23.9773 10.9467 23.989 11.287 23.989 14C23.989 16.713 23.9776 17.053 23.9288 18.1186Z" fill="#749695"/>
</g>
<defs>
<clipPath id="clip0_2275_837">
<rect width="28" height="28" fill="white"/>
</clipPath>
</defs>
</svg>
