<svg width="28" height="28" viewBox="0 0 28 28" fill="none" xmlns="http://www.w3.org/2000/svg">
<g clip-path="url(#clip0_2275_844)">
<path d="M25.2338 0H2.76619C1.24479 0 0 1.24479 0 2.76619V25.2338C0 26.7552 1.24479 28 2.76619 28H25.2338C26.7552 28 28 26.7552 28 25.2338V2.76619C28 1.24479 26.7552 0 25.2338 0ZM8.28905 23.989H3.80905V10.5088H8.28905V23.989ZM7.90577 8.00659C7.43491 8.45041 6.8162 8.67262 6.04935 8.67262H6.02907C5.28926 8.67262 4.69054 8.45071 4.23319 8.00659C3.77585 7.56246 3.54718 7.0043 3.54718 6.33181C3.54718 5.65932 3.78261 5.10424 4.25348 4.66687C4.72435 4.22951 5.3366 4.01098 6.08992 4.01098C6.84325 4.01098 7.42845 4.22612 7.8858 4.65673C8.35666 5.10055 8.5921 5.6793 8.5921 6.39205C8.5921 7.0378 8.36343 7.57598 7.90608 8.00659H7.90577ZM24.4531 23.989H19.9731V16.7849C19.9731 14.7536 19.2198 13.7378 17.7128 13.7378C17.1344 13.7378 16.6534 13.8958 16.2701 14.2121C15.8868 14.5283 15.6007 14.915 15.4126 15.3723C15.305 15.6281 15.2512 15.991 15.2512 16.4619V23.989H10.7712C10.7983 19.9261 10.8115 16.7714 10.8115 14.5247C10.8115 12.2779 10.798 10.9394 10.7712 10.5088H15.2512V12.4257C16.22 10.9323 17.5721 10.1857 19.3074 10.1857C20.8546 10.1857 22.0988 10.7002 23.0405 11.7296C23.9823 12.7589 24.4531 14.2689 24.4531 16.26V23.9887V23.989Z" fill="#749695"/>
<path d="M15.2512 12.47V12.4297L15.231 12.47H15.2512Z" fill="#FFC676"/>
</g>
<defs>
<clipPath id="clip0_2275_844">
<rect width="28" height="28" fill="white"/>
</clipPath>
</defs>
</svg>
