<?xml version="1.0" encoding="UTF-8"?>
<svg id="Layer_1" xmlns="http://www.w3.org/2000/svg" viewBox="0 0 715.57 1026.7">
  <defs>
    <style>
      .cls-1 {
        fill: #fff;
      }
    </style>
  </defs>
  <path class="cls-1" d="M351.52,600.66c12.37-1.35,24.5-1.53,36.07-4.18,28.62-6.54,48.73-23.18,55.59-52.74,3.99-17.2,2.9-34.52-3.73-51.05-10.13-25.28-30.62-37.03-56.21-41.33-7.99-1.34-16.18-1.89-24.29-1.97-24.42-.25-48.85-.09-73.28-.09h-5.07v352.38H.19c-.07-1.66-.19-3.11-.19-4.55,0-164.9,0-329.79.15-494.69,0-1.69,1.27-3.85,2.63-4.99,35.42-29.86,70.92-59.62,106.42-89.4,61-51.18,122.03-102.33,183-153.55,20.84-17.51,41.56-35.14,62.22-52.86,2.59-2.22,4.17-2.15,6.7.02,11.68,10.03,23.54,19.84,35.32,29.75,96.06,80.76,192.11,161.52,288.16,242.28,9.52,8,19.09,15.93,28.48,24.09,1.32,1.14,2.4,3.37,2.4,5.1.09,147.87.06,295.75.04,443.62,0,16.73.04,33.45.05,50.18v5.41h-5.61c-72.98-.02-145.96-.04-218.95-.08-9.62,0-19.24-.01-28.85-.34-1.62-.05-3.93-1.34-4.68-2.73-34.94-65.02-69.75-130.12-104.56-195.22-.6-1.12-1.06-2.31-1.4-3.06h0ZM53.07,748.87h174.85v-341.42h143.01c15.2,0,30.11,2.22,44.7,6.33,26.12,7.35,48.45,20.43,63.92,43.47,11.2,16.68,16.12,35.44,17.59,55.18,1.37,18.45.27,36.72-6.67,54.17-11.89,29.9-33.87,49.68-62.94,62.25-1.69.73-3.36,1.5-5,2.24.32.87.39,1.16.53,1.42,20.97,37.93,41.98,75.85,62.85,113.83,1.57,2.85,3.69,2.85,6.27,2.85,55.07,0,110.13.02,165.2.04h5.07v-4.92c0-138.54,0-277.08.11-415.62,0-3.35-1.12-5.42-3.6-7.47-12.79-10.54-25.48-21.21-38.18-31.86-86.62-72.68-173.25-145.35-259.8-218.11-2.71-2.28-4.21-1.85-6.62.2-16.71,14.16-33.54,28.19-50.32,42.26-82.32,69.05-164.63,138.12-247.02,207.09-2.89,2.42-4,4.84-3.99,8.62.09,137.95.07,275.89.06,413.84v5.6h-.02Z"/>
  <g>
    <path class="cls-1" d="M59.83,890.32c6.5-2.65,11.57-6.45,15.2-11.38s5.45-11.05,5.45-18.37c0-10.72-3.53-18.91-10.6-24.57-7.07-5.66-17.1-8.49-30.1-8.49H.18v109.29h19.58v-42.03h0v-15.31h0v-36.63h20.66c6.81.1,11.93,1.75,15.36,4.95s5.15,7.73,5.15,13.59-1.86,10.02-5.57,13.25-8.87,4.84-15.47,4.84h-6.63l8.29,15.31h0l22.64,42.04h20.97v-.97l-25.3-45.51h-.03Z"/>
    <path class="cls-1" d="M164.91,888.01h-46.27v33.63h54.08v15.16h-73.66v-109.29h73.12v15.31h-53.54v30.17h46.27v15.01h0Z"/>
    <path class="cls-1" d="M253.57,890.49h-45.34v46.31h-19.58v-109.29h71.57v15.31h-51.99v32.5h45.34v15.16h0Z"/>
    <path class="cls-1" d="M365.61,885.01c0,10.71-1.91,20.1-5.73,28.19-3.82,8.08-9.27,14.29-16.36,18.62-7.09,4.33-15.26,6.49-24.49,6.49s-17.27-2.16-24.41-6.49-12.66-10.5-16.56-18.5c-3.89-8.01-5.87-17.24-5.92-27.7v-6.15c0-10.66,1.95-20.07,5.84-28.22,3.89-8.16,9.39-14.4,16.48-18.73,7.09-4.33,15.23-6.49,24.41-6.49s17.32,2.14,24.41,6.42c7.09,4.28,12.57,10.43,16.44,18.46s5.83,17.38,5.88,28.04v6.08-.02ZM346.03,879.3c0-12.11-2.36-21.39-7.08-27.85s-11.41-9.68-20.08-9.68-15.08,3.22-19.85,9.65c-4.77,6.43-7.21,15.53-7.31,27.29v6.31c0,12.01,2.41,21.29,7.23,27.85s11.52,9.83,20.08,9.83,15.33-3.2,20-9.61c4.67-6.4,7-15.76,7-28.07v-5.71h0Z"/>
    <path class="cls-1" d="M444.76,890.32c6.5-2.65,11.57-6.45,15.2-11.38s5.45-11.05,5.45-18.37c0-10.72-3.53-18.91-10.6-24.57-7.07-5.66-17.1-8.49-30.1-8.49h-39.61v109.29h19.57v-42.03h.03v-15.31h-.01v-36.63h20.64c6.81.1,11.93,1.75,15.36,4.95s5.14,7.73,5.14,13.59-1.86,10.02-5.57,13.25c-3.71,3.23-8.87,4.84-15.47,4.84h-6.44l8.14,15.31h0l.03.06h.05-.05l.03.05s.07-.02.11-.03c-.04.01-.07.02-.11.03l22.53,41.92h20.97v-.97l-25.3-45.51h0Z"/>
    <path class="cls-1" d="M509.37,827.51l32.5,83.77,32.42-83.77h25.3v109.29h-19.5v-36.03l1.93-48.19-33.27,84.22h-14l-33.19-84.14,1.93,48.11v36.03h-19.5v-109.29h25.38Z"/>
    <path class="cls-1" d="M685.78,911.36h-43.64l-9.13,25.45h-20.35l42.55-109.29h17.56l42.63,109.29h-20.43l-9.21-25.45h.02ZM647.63,896.04h32.65l-16.33-45.34-16.32,45.34Z"/>
  </g>
  <g>
    <path class="cls-1" d="M39.74,1025.86h-7.65l-24.25-47.53v47.53H.18v-61.68h7.65l24.33,47.74v-47.74h7.57v61.68h.01Z"/>
    <path class="cls-1" d="M85.43,1009.72h-20.47l-4.7,16.14h-7.82l19.51-61.68h6.53l19.55,61.68h-7.82l-4.78-16.14h0ZM66.96,1003.07h16.51l-8.28-28.04-8.24,28.04h0Z"/>
    <path class="cls-1" d="M141.91,1001.71v24.15h-7.61v-61.68h19.3c5.63,0,10.05,1.72,13.27,5.15,3.22,3.43,4.83,8,4.83,13.7s-1.53,10.5-4.6,13.7c-3.06,3.21-7.38,4.87-12.96,4.98h-12.23ZM141.91,995.06h11.69c3.38,0,5.98-1.03,7.78-3.1,1.8-2.07,2.7-5.02,2.7-8.87s-.93-6.68-2.79-8.91c-1.86-2.24-4.41-3.35-7.65-3.35h-11.73v24.23h0Z"/>
    <path class="cls-1" d="M208.27,1009.72h-20.47l-4.7,16.14h-7.82l19.51-61.68h6.53l19.55,61.68h-7.82l-4.78-16.14h0ZM189.8,1003.07h16.51l-8.28-28.04-8.24,28.04h.01Z"/>
    <path class="cls-1" d="M241.03,1019.21h23.75v6.65h-31.41v-61.68h7.65v55.03h.01Z"/>
    <path class="cls-1" d="M287.92,964.18l15.81,50.33,15.81-50.33h9.82v61.68h-7.61v-24.02l.71-24.06-15.85,48.08h-5.82l-15.77-47.91.71,23.89v24.02h-7.61v-61.68h9.82-.02Z"/>
    <path class="cls-1" d="M374.96,1009.72h-20.47l-4.7,16.14h-7.82l19.51-61.68h6.53l19.55,61.68h-7.82l-4.78-16.14h0ZM356.49,1003.07h16.51l-8.28-28.04-8.24,28.04h0Z"/>
    <path class="cls-1" d="M423.83,1025.86v-61.68h14.43c7.07,0,12.56,2.25,16.47,6.76,3.91,4.5,5.87,10.84,5.87,19v10.34c0,8.16-1.98,14.47-5.95,18.91s-9.72,6.67-17.26,6.67h-13.56,0ZM431.44,970.83v48.38h6.12c5.35,0,9.26-1.56,11.73-4.69,2.47-3.12,3.73-7.75,3.79-13.89v-10.94c0-6.5-1.23-11.27-3.68-14.31-2.45-3.04-6.16-4.56-11.13-4.56h-6.83Z"/>
    <path class="cls-1" d="M504.96,1009.72h-20.46l-4.7,16.14h-7.82l19.51-61.68h6.53l19.55,61.68h-7.82l-4.78-16.14h-.01ZM486.49,1003.07h16.51l-8.28-28.04-8.24,28.04h0Z"/>
    <path class="cls-1" d="M563.64,964.18l15.81,50.33,15.81-50.33h9.82v61.68h-7.61v-24.02l.71-24.06-15.85,48.08h-5.82l-15.77-47.91.71,23.89v24.02h-7.61v-61.68h9.82-.02Z"/>
    <path class="cls-1" d="M650.68,1009.72h-20.46l-4.7,16.14h-7.82l19.51-61.68h6.53l19.55,61.68h-7.82l-4.78-16.14h0ZM653.17,949.02c0,2.96-.72,5.42-2.16,7.35s-3.3,2.9-5.57,2.9c-.97,0-1.8-.15-2.5-.44-.69-.3-1.6-.88-2.7-1.74-1.11-.86-1.91-1.38-2.41-1.57-.5-.18-1.07-.28-1.71-.28-.94,0-1.73.45-2.35,1.36-.62.9-.94,2.03-.94,3.39l-4.78-.3c0-3.08.73-5.59,2.2-7.54,1.47-1.95,3.3-2.92,5.49-2.92.83,0,1.58.16,2.25.49.67.32,1.5.85,2.52,1.59,1.01.74,1.84,1.25,2.47,1.55.64.3,1.33.44,2.08.44.94,0,1.73-.46,2.37-1.38s.96-2.05.96-3.41l4.78.51h0ZM632.21,1003.07h16.51l-8.28-28.04-8.24,28.04h.01Z"/>
    <path class="cls-1" d="M715.17,1000.44c0,8.42-1.76,14.9-5.28,19.44-3.52,4.54-8.53,6.82-15.02,6.82s-11.17-2.21-14.79-6.63-5.5-10.67-5.64-18.75v-11.61c0-8.25,1.79-14.71,5.37-19.38s8.57-7.01,14.97-7.01,11.35,2.24,14.91,6.71c3.56,4.48,5.39,10.87,5.47,19.17v11.23h.01ZM707.56,989.64c0-6.52-1.05-11.37-3.14-14.55s-5.3-4.77-9.63-4.77-7.36,1.61-9.5,4.83-3.24,7.96-3.26,14.23v11.06c0,6.3,1.07,11.1,3.22,14.4,2.15,3.3,5.36,4.96,9.63,4.96s7.43-1.53,9.48-4.58,3.12-7.72,3.2-14.02v-11.56h0Z"/>
  </g>
</svg>