<?xml version="1.0" encoding="UTF-8"?>
<svg id="Layer_1" xmlns="http://www.w3.org/2000/svg" viewBox="0 0 993.65 379.89">
  <defs>
    <style>
      .cls-1 {
        fill: #fff;
      }
    </style>
  </defs>
  <path class="cls-1" d="M166.49,284.5c5.86-.64,11.6-.72,17.08-1.98,13.56-3.1,23.08-10.98,26.33-24.98,1.89-8.15,1.37-16.35-1.77-24.18-4.8-11.97-14.5-17.54-26.62-19.58-3.78-.63-7.66-.9-11.5-.93-11.57-.12-23.14-.04-34.71-.04h-2.4v166.9H.09c-.03-.79-.09-1.47-.09-2.16,0-78.1,0-156.2.07-234.3,0-.8.6-1.82,1.25-2.36,16.78-14.14,33.59-28.24,50.4-42.34,28.89-24.24,57.8-48.47,86.67-72.73,9.87-8.29,19.68-16.64,29.47-25.04,1.23-1.05,1.98-1.02,3.17,0,5.53,4.75,11.15,9.4,16.73,14.09,45.5,38.25,90.99,76.5,136.48,114.75,4.51,3.79,9.04,7.54,13.49,11.41.63.54,1.14,1.6,1.14,2.42.04,70.04.03,140.08.02,210.11,0,7.92.02,15.84.02,23.77v2.56h-2.66c-34.57,0-69.13-.02-103.7-.04-4.56,0-9.11,0-13.66-.16-.77-.02-1.86-.63-2.22-1.29-16.55-30.8-33.04-61.63-49.52-92.46-.28-.53-.5-1.09-.66-1.45h0ZM25.14,354.69h82.81v-161.71h67.73c7.2,0,14.26,1.05,21.17,3,12.37,3.48,22.95,9.68,30.27,20.59,5.3,7.9,7.63,16.79,8.33,26.13.65,8.74.13,17.39-3.16,25.66-5.63,14.16-16.04,23.53-29.81,29.48-.8.35-1.59.71-2.37,1.06.15.41.18.55.25.67,9.93,17.96,19.88,35.92,29.77,53.91.74,1.35,1.75,1.35,2.97,1.35,26.08,0,52.16,0,78.24.02h2.4v-2.33c0-65.62,0-131.23.05-196.85,0-1.59-.53-2.57-1.71-3.54-6.06-4.99-12.07-10.05-18.08-15.09-41.03-34.42-82.06-68.84-123.05-103.3-1.28-1.08-1.99-.88-3.14.09-7.91,6.71-15.89,13.35-23.83,20.02-38.99,32.7-77.97,65.42-117,98.08-1.37,1.15-1.89,2.29-1.89,4.08.04,65.34.03,130.67.03,196.01v2.65h0l.02.02Z"/>
  <g>
    <path class="cls-1" d="M443.12,244.88c5.46-2.23,9.72-5.42,12.76-9.56s4.58-9.28,4.58-15.43c0-9-2.96-15.88-8.9-20.63s-14.36-7.13-25.28-7.13h-33.26v91.78h16.44v-35.3h0v-12.86h0v-30.76h17.35c5.72.08,10.02,1.47,12.9,4.16s4.32,6.49,4.32,11.41-1.56,8.41-4.68,11.13c-3.12,2.71-7.45,4.06-12.99,4.06h-5.57l6.96,12.86h0l19.01,35.3h17.61v-.81l-21.25-38.22h-.03.03Z"/>
    <path class="cls-1" d="M531.37,242.94h-38.86v28.24h45.42v12.73h-61.86v-91.78h61.41v12.86h-44.96v25.34h38.86v12.61h-.01Z"/>
    <path class="cls-1" d="M605.82,245.03h-38.08v38.89h-16.44v-91.78h60.1v12.86h-43.66v27.29h38.08v12.73h0Z"/>
    <path class="cls-1" d="M699.91,240.42c0,8.99-1.6,16.88-4.81,23.67s-7.78,12-13.74,15.64c-5.95,3.64-12.82,5.45-20.57,5.45s-14.5-1.81-20.5-5.45-10.63-8.82-13.91-15.54c-3.27-6.73-4.93-14.48-4.97-23.26v-5.16c0-8.95,1.64-16.85,4.9-23.7,3.27-6.85,7.89-12.09,13.84-15.73s12.79-5.45,20.5-5.45,14.55,1.8,20.5,5.39,10.56,8.76,13.81,15.5,4.9,14.6,4.94,23.55v5.11-.02h0ZM683.47,235.63c0-10.17-1.98-17.96-5.95-23.39-3.96-5.42-9.58-8.13-16.86-8.13s-12.66,2.7-16.67,8.1c-4.01,5.4-6.05,13.04-6.14,22.92v5.3c0,10.09,2.02,17.88,6.07,23.39s9.67,8.26,16.86,8.26,12.87-2.69,16.8-8.07c3.92-5.37,5.88-13.24,5.88-23.57v-4.8h.01Z"/>
    <path class="cls-1" d="M766.38,244.88c5.46-2.23,9.72-5.42,12.76-9.56,3.05-4.14,4.58-9.28,4.58-15.43,0-9-2.96-15.88-8.9-20.63s-14.36-7.13-25.28-7.13h-33.26v91.78h16.43v-35.3h.03v-12.86h0v-30.76h17.33c5.72.08,10.02,1.47,12.9,4.16s4.32,6.49,4.32,11.41-1.56,8.41-4.68,11.13c-3.12,2.71-7.45,4.06-12.99,4.06h-5.41l6.84,12.86h0l.03.05h.04-.04l.03.04s.06-.02.09-.03c-.03,0-.06.02-.09.03l18.92,35.2h17.61v-.81l-21.25-38.22h-.01Z"/>
    <path class="cls-1" d="M820.64,192.14l27.29,70.35,27.23-70.35h21.25v91.78h-16.38v-30.26l1.62-40.47-27.94,70.73h-11.76l-27.87-70.66,1.62,40.4v30.26h-16.38v-91.78h21.32Z"/>
    <path class="cls-1" d="M968.78,262.55h-36.65l-7.67,21.37h-17.09l35.73-91.78h14.75l35.8,91.78h-17.16l-7.73-21.37h.02ZM936.75,249.69h27.42l-13.71-38.08-13.71,38.08h0Z"/>
  </g>
  <g>
    <path class="cls-1" d="M426.1,353.1h-6.4l-20.28-39.17v39.17h-6.4v-50.83h6.4l20.34,39.34v-39.34h6.33v50.83h.01Z"/>
    <path class="cls-1" d="M464.3,339.8h-17.11l-3.93,13.3h-6.54l16.31-50.83h5.46l16.35,50.83h-6.54l-4-13.3h0ZM448.86,334.32h13.8l-6.92-23.11-6.89,23.11h.01Z"/>
    <path class="cls-1" d="M511.53,333.2v19.9h-6.36v-50.83h16.14c4.71,0,8.4,1.42,11.09,4.24,2.69,2.83,4.04,6.59,4.04,11.29s-1.28,8.65-3.85,11.29c-2.56,2.65-6.17,4.01-10.84,4.1h-10.23.01ZM511.53,327.72h9.77c2.83,0,5-.85,6.5-2.55,1.5-1.71,2.26-4.14,2.26-7.31s-.78-5.5-2.33-7.34c-1.56-1.85-3.69-2.76-6.4-2.76h-9.81v19.97h.01Z"/>
    <path class="cls-1" d="M567.01,339.8h-17.11l-3.93,13.3h-6.54l16.31-50.83h5.46l16.35,50.83h-6.54l-4-13.3h0ZM551.57,334.32h13.8l-6.92-23.11-6.89,23.11h.01Z"/>
    <path class="cls-1" d="M594.4,347.62h19.86v5.48h-26.26v-50.83h6.4v45.35h0Z"/>
    <path class="cls-1" d="M633.6,302.27l13.22,41.48,13.22-41.48h8.21v50.83h-6.36v-19.79l.59-19.83-13.25,39.62h-4.87l-13.19-39.48.59,19.69v19.79h-6.36v-50.83h8.21-.02,0Z"/>
    <path class="cls-1" d="M706.38,339.8h-17.11l-3.93,13.3h-6.54l16.31-50.83h5.46l16.35,50.83h-6.54l-4-13.3h0ZM690.93,334.32h13.8l-6.92-23.11-6.89,23.11h.01Z"/>
    <path class="cls-1" d="M747.24,353.1v-50.83h12.06c5.91,0,10.5,1.85,13.77,5.57,3.27,3.71,4.91,8.93,4.91,15.66v8.52c0,6.72-1.66,11.92-4.97,15.58-3.32,3.66-8.13,5.5-14.43,5.5h-11.34ZM753.6,307.75v39.87h5.12c4.47,0,7.74-1.29,9.81-3.86,2.07-2.57,3.12-6.39,3.17-11.45v-9.02c0-5.36-1.03-9.29-3.08-11.79-2.05-2.51-5.15-3.76-9.31-3.76h-5.71,0Z"/>
    <path class="cls-1" d="M815.07,339.8h-17.11l-3.93,13.3h-6.54l16.31-50.83h5.46l16.35,50.83h-6.54l-4-13.3h0ZM799.63,334.32h13.8l-6.92-23.11-6.89,23.11h.01Z"/>
    <path class="cls-1" d="M864.13,302.27l13.22,41.48,13.22-41.48h8.21v50.83h-6.36v-19.79l.59-19.83-13.25,39.62h-4.87l-13.19-39.48.59,19.69v19.79h-6.36v-50.83h8.21-.02,0Z"/>
    <path class="cls-1" d="M936.9,339.8h-17.11l-3.93,13.3h-6.54l16.31-50.83h5.46l16.35,50.83h-6.54l-4-13.3h0ZM938.98,289.78c0,2.44-.6,4.47-1.81,6.06s-2.76,2.39-4.66,2.39c-.81,0-1.5-.12-2.09-.36-.58-.25-1.34-.73-2.26-1.43-.93-.71-1.6-1.14-2.01-1.29-.42-.15-.89-.23-1.43-.23-.79,0-1.45.37-1.96,1.12-.52.74-.79,1.67-.79,2.79l-4-.25c0-2.54.61-4.61,1.84-6.21,1.23-1.61,2.76-2.41,4.59-2.41.69,0,1.32.13,1.88.4.56.26,1.25.7,2.11,1.31.84.61,1.54,1.03,2.07,1.28.54.25,1.11.36,1.74.36.79,0,1.45-.38,1.98-1.14s.8-1.69.8-2.81l4,.42h0ZM921.46,334.32h13.8l-6.92-23.11-6.89,23.11h.01Z"/>
    <path class="cls-1" d="M990.82,332.15c0,6.94-1.47,12.28-4.41,16.02s-7.13,5.62-12.56,5.62-9.34-1.82-12.37-5.46c-3.03-3.64-4.6-8.79-4.72-15.45v-9.57c0-6.8,1.5-12.12,4.49-15.97s7.17-5.78,12.52-5.78,9.49,1.85,12.47,5.53c2.98,3.69,4.51,8.96,4.57,15.8v9.25h0ZM984.46,323.25c0-5.37-.88-9.37-2.63-11.99s-4.43-3.93-8.05-3.93-6.15,1.33-7.94,3.98-2.71,6.56-2.73,11.73v9.11c0,5.19.89,9.15,2.69,11.87s4.48,4.09,8.05,4.09,6.21-1.26,7.93-3.77c1.71-2.51,2.61-6.36,2.68-11.55v-9.53h0Z"/>
  </g>
</svg>