<svg width="17" height="17" viewBox="0 0 17 17" fill="none" xmlns="http://www.w3.org/2000/svg">
<path d="M6.53957 12.46C4.8857 12.46 3.48614 11.8871 2.34088 10.7412C1.19561 9.59532 0.622678 8.19575 0.622071 6.5425C0.621464 4.88924 1.1944 3.48968 2.34088 2.3438C3.48735 1.19794 4.88692 0.625 6.53957 0.625C8.19222 0.625 9.59208 1.19794 10.7392 2.3438C11.8863 3.48968 12.4589 4.88924 12.4571 6.5425C12.4571 7.21011 12.3509 7.83979 12.1384 8.43154C11.926 9.02329 11.6377 9.54676 11.2736 10.002L16.3717 15.1001C16.5386 15.267 16.6221 15.4794 16.6221 15.7374C16.6221 15.9953 16.5386 16.2077 16.3717 16.3746C16.2048 16.5415 15.9924 16.625 15.7344 16.625C15.4765 16.625 15.2641 16.5415 15.0972 16.3746L9.99903 11.2765C9.54383 11.6406 9.02036 11.9289 8.42861 12.1414C7.83686 12.3538 7.20718 12.46 6.53957 12.46ZM6.53957 10.6392C7.67755 10.6392 8.64498 10.2411 9.44187 9.4448C10.2388 8.64852 10.6369 7.68108 10.6363 6.5425C10.6357 5.40391 10.2375 4.43678 9.44187 3.6411C8.6462 2.84543 7.67876 2.44698 6.53957 2.44577C5.40037 2.44455 4.43324 2.843 3.63817 3.6411C2.8431 4.43921 2.44466 5.40634 2.44284 6.5425C2.44102 7.67866 2.83946 8.64609 3.63817 9.4448C4.43688 10.2435 5.40401 10.6417 6.53957 10.6392Z" fill="#FFC676"/>
</svg>
