<svg width="140" height="153" viewBox="0 0 140 153" fill="none" xmlns="http://www.w3.org/2000/svg">
<path d="M30.0299 109.485C29.5283 106.456 29.0267 103.428 28.4982 100.235C27.9637 100.616 27.3337 101.026 26.7455 101.49C24.6167 103.168 22.343 104.544 19.6304 105.047C15.1412 105.88 10.9372 105.256 7.14373 102.578C6.57643 102.178 6.00764 101.774 5.47318 101.331C3.95639 100.074 2.356 99.0156 0.234585 99.0634V90.1258C2.77998 90.1079 5.14324 90.5691 7.27809 91.7975C8.82026 92.6841 10.2624 93.7528 11.7001 94.808C14.6933 97.0066 17.7523 97.0156 20.7426 94.7812C21.7757 94.008 22.7834 93.1945 23.8612 92.4886C25.5378 91.39 27.3725 90.6557 29.3715 90.3706C28.8416 93.4841 28.44 96.6036 28.8222 99.8843C32.0931 98.4141 34.9236 98.9843 37.4675 101.256C37.9109 101.652 38.4036 101.993 38.8873 102.341C44.5529 106.431 51.8218 106.476 57.5366 102.447C58.4697 101.789 59.3595 101.072 60.2716 100.386C61.8287 99.2141 63.5784 98.9141 65.4833 99.1559C67.4331 99.4037 68.8155 100.64 70.2248 101.799C76.0814 106.619 84.7418 106.607 90.5656 101.766C92.2496 100.366 93.944 98.9455 96.3416 99.0634V90.1183C94.3844 90.1049 92.5974 90.4273 90.8612 91.0631C88.5845 91.896 86.7318 93.399 84.8269 94.8304C81.9112 97.02 78.8164 97.0006 75.9172 94.8304C75.1215 94.2364 74.3512 93.608 73.542 93.0333C69.3828 90.078 64.8041 89.4377 59.9312 90.684C57.2246 91.3766 55.0494 93.0438 52.8832 94.723C49.8631 97.0633 46.7549 97.0439 43.7377 94.7558C43.0659 94.2453 42.4016 93.7229 41.7223 93.2244C38.002 90.496 33.8756 89.5422 29.3357 90.4049C30.3001 86.975 31.2645 83.5465 32.2499 80.0419C30.8017 79.8404 29.5014 80.3434 28.3101 81.1867C27.4188 81.8181 26.5783 82.5196 25.6945 83.1629C19.9125 87.369 12.6107 87.3869 6.79887 83.2122C6.27486 82.836 5.74787 82.4599 5.25372 82.0465C3.81158 80.8405 2.23955 79.9419 0.158447 79.9434V71.0208C3.14724 70.9745 5.77773 71.6909 8.19175 73.1626C9.24723 73.8074 10.2923 74.5134 11.2074 75.3388C14.0887 77.9389 18.13 77.9329 21.2442 75.3552C22.9013 73.9835 24.8242 72.8238 26.8023 71.9715C29.6925 70.7252 32.7813 70.6969 36.0164 71.4372C34.843 74.2224 33.698 76.9418 32.4559 79.8882C35.3387 80.03 37.0869 81.9703 39.1291 83.4047C44.6723 87.2974 51.8875 87.3003 57.4247 83.4137C58.3189 82.7868 59.1624 82.0897 60.0402 81.439C62.7274 79.4464 65.864 79.4658 68.6035 81.4076C70.3397 82.6375 72.0118 84.0779 73.9361 84.9048C79.2091 87.169 84.3924 86.7988 89.2563 83.5868C89.9595 83.1226 90.6357 82.6107 91.2866 82.0748C92.7348 80.8837 94.2874 79.9479 96.3356 79.9404V71.0685C94.4516 70.9058 92.6885 71.3208 90.9612 71.9208C88.6711 72.7178 86.7736 74.1716 84.9194 75.6761C83.4623 76.8582 81.8336 77.3926 79.9495 77.2971C78.6089 77.2299 77.4191 76.8418 76.3546 76.0448C75.5201 75.4194 74.702 74.7716 73.8585 74.1582C67.981 69.8774 60.5792 69.8998 54.724 74.2134C54.1238 74.6552 53.5073 75.0821 52.9564 75.5806C50.3961 77.9016 46.1801 77.8568 43.6616 75.6239C42.5897 74.6746 41.3954 73.8313 40.1592 73.1074C38.9709 72.4118 37.6542 71.9342 36.2359 71.2894C36.4076 70.9058 36.6032 70.4267 36.8301 69.9625C42.1881 58.9547 48.6524 48.6022 55.5137 38.4885C64.4697 25.2881 74.081 12.5802 84.2625 0.300781C84.3626 0.300781 84.4611 0.300781 84.5611 0.300781C84.8448 0.74557 85.0851 1.22469 85.4165 1.62918C99.7723 19.1178 113.17 37.2899 124.683 56.7965C129.429 64.8385 133.589 73.1626 136.851 81.9465C141.941 95.6543 140.579 108.967 134.212 121.755C126.076 138.099 112.826 148.238 94.9099 151.916C69.7321 157.084 43.6885 143.403 33.4039 119.825C33.2143 119.389 33.065 118.936 32.8634 118.4C34.1249 118.191 35.049 118.649 35.906 119.237C36.8465 119.883 37.7378 120.601 38.6544 121.283C44.4364 125.581 51.8128 125.655 57.6665 121.464C58.5145 120.857 59.3221 120.194 60.1641 119.58C62.714 117.725 65.9163 117.716 68.4781 119.558C69.647 120.398 70.7354 121.369 71.967 122.098C77.6535 125.472 83.3519 125.388 89.007 121.979C89.3892 121.749 89.7519 121.485 90.1087 121.216C92.0032 119.792 93.7141 118.016 96.37 118.209V109.294C94.3964 109.174 92.5034 109.391 90.8328 110.243C88.8159 111.273 86.8826 112.509 85.0463 113.838C83.3937 115.035 81.6649 115.794 79.648 115.458C78.5552 115.276 77.4609 114.849 76.4815 114.322C75.5306 113.812 74.7378 113.015 73.8555 112.37C68.087 108.158 60.7673 108.119 54.9629 112.27C54.1955 112.819 53.4625 113.413 52.7071 113.979C49.8945 116.085 46.7071 116.103 43.9124 114.003C42.0075 112.571 40.1757 111.037 37.8856 110.22C35.3148 109.302 32.6947 108.926 29.9836 109.446L30.0284 109.488L30.0299 109.485Z" fill="white"/>
</svg>
