<svg width="48" height="49" viewBox="0 0 48 49" fill="none" xmlns="http://www.w3.org/2000/svg">
<path fill-rule="evenodd" clip-rule="evenodd" d="M24.1504 0.301566C10.9587 0.277402 0.24457 10.9523 0.220406 24.1441C0.196243 37.3358 10.8712 48.0499 24.0629 48.0741C37.2546 48.0982 47.9687 37.4233 47.9929 24.2316C48.0171 11.0398 37.3421 0.32573 24.1504 0.301566ZM26.298 13.3344C26.2991 12.7585 26.0713 12.2057 25.6648 11.7978C25.2583 11.3898 24.7064 11.16 24.1305 11.1589C23.5546 11.1579 23.0019 11.3857 22.5939 11.7921C22.1859 12.1986 21.9561 12.7505 21.9551 13.3264L21.9312 26.3553C21.9301 26.9312 22.1579 27.484 22.5644 27.8919C22.9709 28.2999 23.5228 28.5297 24.0987 28.5308C24.6746 28.5318 25.2273 28.304 25.6353 27.8976C26.0433 27.4911 26.2731 26.9392 26.2741 26.3633L26.298 13.3344ZM26.2602 33.9634C26.2613 33.3875 26.0335 32.8348 25.627 32.4268C25.2205 32.0188 24.6686 31.789 24.0927 31.788C23.5168 31.7869 22.9641 32.0147 22.5561 32.4212C22.1481 32.8277 21.9183 33.3796 21.9173 33.9555L21.9153 35.0412C21.9142 35.6171 22.142 36.1699 22.5485 36.5778C22.955 36.9858 23.5069 37.2156 24.0828 37.2167C24.6587 37.2177 25.2114 36.99 25.6194 36.5835C26.0274 36.177 26.2572 35.6251 26.2582 35.0492L26.2602 33.9634Z" fill="#749695"/>
</svg>
