<svg width="149" height="149" viewBox="0 0 149 149" fill="none" xmlns="http://www.w3.org/2000/svg">
<g style="mix-blend-mode:soft-light" clip-path="url(#clip0_1146_5693)">
<path d="M71.0205 149C68.3093 148.613 65.5861 148.297 62.8898 147.824C57.2499 146.837 51.887 144.967 46.7222 142.519C44.3236 141.381 43.3484 139.017 44.3117 136.766C45.2958 134.464 47.806 133.453 50.2523 134.6C57.2931 137.9 64.6586 139.82 72.4379 140.028C85.7379 140.384 97.7516 136.596 108.47 128.711C108.662 128.57 108.841 128.412 109.211 128.11C106.847 126.262 104.55 124.466 102.22 122.644C100.123 123.871 98.103 125.176 95.9769 126.277C85.8035 131.54 75.1342 132.892 63.9573 130.264C62.324 129.88 60.8738 129.354 60.1071 127.782C59.3522 126.235 59.4356 124.661 60.4823 123.266C61.5558 121.837 63.0268 121.314 64.8223 121.556C68.2557 122.016 71.6949 122.732 75.1387 122.768C82.2927 122.84 88.9122 120.714 95.1908 116.891C91.8259 113.802 88.5192 110.766 85.0605 107.59C90.3415 105.022 94.3347 101.361 97.0742 96.3996C99.7735 91.5117 101.061 86.3081 100.382 80.4688C102.223 81.0137 103.92 81.4782 105.592 82.0172C116.154 85.4207 126.603 89.1414 136.581 94.0264C143.698 97.5103 147.645 103.408 148.766 111.226C148.799 111.457 148.921 111.674 149.001 111.897V116.245C148.893 116.754 148.762 117.26 148.678 117.774C146.429 131.531 131.79 139.681 118.998 134.168C117.299 133.435 116.321 133.657 114.982 134.741C106.423 141.676 96.6796 146.083 85.8332 148.01C83.5195 148.421 81.179 148.675 78.8504 149.001H71.0235L71.0205 149Z" fill="white"/>
<path d="M36.0619 85.0921C40.5107 83.7089 44.7629 82.3868 49.1997 81.0066C48.5223 86.7939 49.7625 91.9558 52.5259 96.7663C55.2996 101.593 59.3136 105.097 64.5574 107.586C61.1881 110.623 58.1359 113.65 54.8008 116.326C47.952 121.821 41.1837 127.465 33.9507 132.419C26.7654 137.338 18.8581 137.265 11.3557 132.888C3.9932 128.592 0.388651 121.848 0.665581 113.336C0.894867 106.31 4.09891 100.664 9.84148 96.5638C10.7646 95.9043 10.9968 95.3504 10.8286 94.2144C7.67964 72.8729 13.318 54.14 27.9297 38.2716C30.9775 34.9619 34.7011 32.2536 38.2282 29.4129C40.4094 27.656 43.143 28.1071 44.6051 30.1796C46.0418 32.2179 45.5803 34.8026 43.3261 36.3808C38.1791 39.9868 33.6306 44.2137 29.9367 49.2982C20.8487 61.8062 17.2084 75.7509 19.1052 91.116C19.1231 91.256 19.1797 91.3915 19.2571 91.6714C21.8626 90.6113 24.4607 89.6063 26.9947 88.4614C27.3357 88.308 27.5307 87.4341 27.4965 86.913C27.1749 81.8657 27.5173 76.875 28.695 71.9543C30.7422 63.4008 34.9066 55.9981 40.9827 49.6659C42.7023 47.8734 45.3659 47.7989 47.1123 49.3994C48.8588 51 49.0583 53.6397 47.3491 55.5083C43.8964 59.2826 40.9916 63.3874 39.0605 68.1488C36.8898 73.4983 35.919 79.0562 36.0605 85.0891L36.0619 85.0921Z" fill="white"/>
<path d="M92.8995 48.7358C91.9079 53.2307 90.9431 57.599 89.947 62.1133C79.8466 55.665 69.8816 55.1677 59.7275 62.152C59.2257 60.0646 58.7031 58.0978 58.2833 56.1102C56.1438 45.9531 54.4777 35.7216 53.4236 25.3888C52.2474 13.8516 59.1885 3.74218 70.1838 1.15453C82.2928 -1.69665 94.3451 6.52041 95.8638 18.8721C96.1526 21.2185 97.034 22.1654 99.1453 23.0826C120.579 32.4029 133.866 48.4693 138.594 71.4455C139.069 73.7532 139.294 76.1191 139.54 78.4685C139.808 81.0308 138.155 83.0497 135.669 83.3416C133.404 83.6066 131.275 82.0075 131.006 79.5762C130.434 74.4292 129.622 69.3402 127.807 64.4687C121.992 48.8579 111.4 37.7688 96.1243 31.1433C96.0052 31.0912 95.8608 31.0972 95.5616 31.051C95.1923 33.798 94.7859 36.5047 94.5179 39.2264C94.4836 39.5718 95.1104 40.1316 95.5511 40.352C99.6351 42.3977 103.396 44.9154 106.75 48.0092C113.467 54.2059 118.191 61.6532 120.61 70.5001C121.279 72.9448 120.024 75.2376 117.765 75.9136C115.45 76.6059 113.142 75.4818 112.371 73.0356C110.819 68.1134 108.71 63.4949 105.528 59.405C102.104 55.0039 97.9631 51.45 92.898 48.7358H92.8995Z" fill="white"/>
<path d="M57.6772 83.7124C57.6847 73.9082 65.4045 65.7612 74.6414 65.8088C84.0913 65.8564 91.9242 73.7817 91.9004 83.2703C91.8766 92.939 83.8501 101.174 74.4657 101.16C65.1082 101.147 57.6713 93.4184 57.6772 83.7139V83.7124Z" fill="white"/>
</g>
<defs>
<clipPath id="clip0_1146_5693">
<rect width="149" height="149" fill="white"/>
</clipPath>
</defs>
</svg>
